<?xml version="1.0" encoding="utf-8"?>
<!-- Generator: Adobe Illustrator 21.0.2, SVG Export Plug-In . SVG Version: 6.00 Build 0)  -->
<svg version="1.1" id="Слой_1" xmlns="http://www.w3.org/2000/svg" xmlns:xlink="http://www.w3.org/1999/xlink" x="0px" y="0px"
	 viewBox="0 0 25.97 26.369" style="enable-background:new 0 0 25.97 26.369;" xml:space="preserve">
<style type="text/css">
	.st0{fill-rule:evenodd;clip-rule:evenodd;fill:#676767;stroke:#676767;stroke-width:0.216;stroke-miterlimit:22.9256;}
	.st1{fill-rule:evenodd;clip-rule:evenodd;fill:#676767;}
	.st2{fill-rule:evenodd;clip-rule:evenodd;fill:#6BC7E4;}
	.st3{fill-rule:evenodd;clip-rule:evenodd;fill:#00B4EC;}
	.st4{fill-rule:evenodd;clip-rule:evenodd;fill:#DC2A1B;}
	.st5{fill-rule:evenodd;clip-rule:evenodd;fill:#F0F0F0;}
	.st6{fill:#009FE3;}
	.st7{fill:#DADADA;}
	.st8{fill:#00B4EC;}
	.st9{fill:#FFFFFF;}
</style>
<g>
	<g>
		<path class="st8" d="M0.594,3.432C0.194,3.921,0,4.501,0,5.202l0.001,18.329c0,0.137,0.002,0.276,0.014,0.414
			c0.061,0.674,0.317,1.222,0.781,1.673c0.52,0.506,1.154,0.751,1.939,0.751l20.46-0.002c0.191,0,0.386-0.012,0.575-0.044
			c0.715-0.123,1.268-0.462,1.688-1.037c0.341-0.465,0.507-1,0.51-1.635L25.97,5.214c0-0.719-0.199-1.307-0.607-1.797
			c-0.533-0.638-1.225-0.951-2.114-0.957c-0.45-0.004-0.9-0.002-1.352-0.002h-0.275l0,1.587c0,0.093-0.004,0.186-0.012,0.277
			c-0.058,0.739-0.446,1.405-1.064,1.826c-0.618,0.424-1.381,0.543-2.095,0.324c-1.041-0.316-1.744-1.272-1.749-2.378L16.7,2.463
			H9.266L9.265,4.052c0,0.137-0.008,0.275-0.026,0.413c-0.083,0.649-0.446,1.25-0.997,1.646C7.688,6.511,7,6.662,6.35,6.535
			C5.173,6.3,4.349,5.297,4.348,4.095V2.458H4.187L2.833,2.461c-0.174,0.001-0.349,0.005-0.52,0.026
			C1.6,2.579,1.038,2.888,0.594,3.432z M24.686,8.87l0.022,0.491c0,4.759,0.001,9.518-0.003,14.277c0,0.217-0.038,0.432-0.108,0.62
			c-0.18,0.478-0.565,0.767-1.115,0.836c-0.092,0.012-0.186,0.015-0.279,0.015L2.768,25.11c-0.2,0-0.437-0.014-0.671-0.113
			c-0.351-0.148-0.779-0.479-0.834-1.216c-0.004-0.058-0.004-0.111-0.004-0.166V8.87H24.686z"/>
		<path class="st8" d="M5.781,2.575c0-0.532-0.008-1.065,0.002-1.597c0.012-0.654,0.514-1.043,1.159-0.967
			C7.508,0.078,7.833,0.45,7.836,1.02c0.005,1.036,0.004,2.072,0,3.108c-0.001,0.333-0.11,0.623-0.389,0.828
			C7.094,5.215,6.511,5.213,6.161,4.952C5.913,4.766,5.79,4.508,5.785,4.206c-0.01-0.543-0.003-1.087-0.003-1.631L5.781,2.575z"/>
		<path class="st8" d="M18.134,2.575c0-0.535-0.005-1.07,0.002-1.605c0.004-0.276,0.098-0.522,0.308-0.712
			c0.244-0.221,0.538-0.287,0.853-0.247c0.566,0.071,0.89,0.44,0.892,1.01c0.004,1.036,0.001,2.072,0.001,3.109
			c0,0.187-0.037,0.366-0.128,0.53c-0.177,0.318-0.464,0.459-0.815,0.486c-0.177,0.014-0.351-0.008-0.516-0.076
			c-0.396-0.164-0.582-0.477-0.593-0.89C18.124,3.645,18.134,3.11,18.134,2.575z"/>
	</g>
	<g>
		<circle class="st3" cx="5.61" cy="12.625" r="1.375"/>
		<circle class="st3" cx="10.527" cy="12.625" r="1.375"/>
		<circle class="st3" cx="15.443" cy="12.625" r="1.375"/>
		<circle class="st3" cx="20.36" cy="12.625" r="1.375"/>
	</g>
	<g>
		<circle class="st3" cx="5.61" cy="17.125" r="1.375"/>
		<circle class="st3" cx="10.527" cy="17.125" r="1.375"/>
		<circle class="st3" cx="15.443" cy="17.125" r="1.375"/>
		<circle class="st3" cx="20.36" cy="17.125" r="1.375"/>
	</g>
	<g>
		<circle class="st3" cx="5.61" cy="21.625" r="1.375"/>
		<circle class="st3" cx="10.527" cy="21.625" r="1.375"/>
		<circle class="st3" cx="15.443" cy="21.625" r="1.375"/>
		<circle class="st3" cx="20.36" cy="21.625" r="1.375"/>
	</g>
</g>
</svg>
