<?xml version="1.0" encoding="utf-8"?>
<!-- Generator: Adobe Illustrator 21.0.2, SVG Export Plug-In . SVG Version: 6.00 Build 0)  -->
<svg version="1.1" id="Слой_1" xmlns="http://www.w3.org/2000/svg" xmlns:xlink="http://www.w3.org/1999/xlink" x="0px" y="0px"
	 viewBox="0 0 119.366 84.612" style="enable-background:new 0 0 119.366 84.612;" xml:space="preserve">
<style type="text/css">
	.st0{fill-rule:evenodd;clip-rule:evenodd;fill:#676767;stroke:#676767;stroke-width:0.216;stroke-miterlimit:22.9256;}
	.st1{fill-rule:evenodd;clip-rule:evenodd;fill:#676767;}
	.st2{fill-rule:evenodd;clip-rule:evenodd;fill:#6BC7E4;}
	.st3{fill-rule:evenodd;clip-rule:evenodd;fill:#00B4EC;}
	.st4{fill-rule:evenodd;clip-rule:evenodd;fill:#DC2A1B;}
	.st5{fill-rule:evenodd;clip-rule:evenodd;fill:#F0F0F0;}
	.st6{fill:#009FE3;}
	.st7{fill:#DADADA;}
	.st8{fill:#00B4EC;}
	.st9{fill:#FFFFFF;}
</style>
<g>
	<g>
		<path class="st6" d="M49.068,58.564c5.642,0.348,11.157,0.687,16.772,1.033c0,1.489,0,2.803,0,4.24c-7.953,0-15.827,0-23.874,0
			c0-8.531,0-16.964,0-25.606c-0.723-0.073-1.297-0.18-1.871-0.181c-5.075-0.014-10.15,0.048-15.223-0.047
			c-1.394-0.026-2.035,0.527-2.594,1.689c-1.817,3.776-3.772,7.487-5.568,11.272c-0.474,0.999-0.79,2.175-0.802,3.274
			c-0.068,6.156-0.041,12.314,0.017,18.47c0.006,0.621,0.438,1.237,0.672,1.856c0.465-0.459,1.123-0.835,1.363-1.391
			c1.705-3.958,5.188-6.419,9.263-6.427c4.129-0.009,7.647,2.493,9.44,6.517c0.268,0.602,1.186,1.297,1.808,1.301
			c12.178,0.081,24.357,0.082,36.536,0.023c0.616-0.003,1.623-0.58,1.782-1.095c2.021-6.559,11.531-9.734,17.247-2.97
			c0.123,0.145,0.321,0.226,0.555,0.385c2.158-2.537,4.803-4.135,8.208-4.153c4.075-0.021,7.651,2.498,9.294,6.396
			c0.243,0.576,0.833,1.373,1.317,1.414c1.931,0.163,3.884,0.067,5.957,0.067c0-5.42,0-10.587,0-16.059
			c-2.075,0.846-4.079,1.471-5.857,2.491c-0.63,0.361-0.711,1.682-1.119,2.77c-8.956,0-18.197,0-27.595,0c0-2.573,0-5.168,0-7.879
			c11.152-3.751,22.333-7.512,33.569-11.291c-1.491-8.82-2.95-17.455-4.412-26.107c-5.211,0-10.211-0.034-15.21,0.007
			c-10.146,0.084-20.291,0.175-30.435,0.354c-1.512,0.027-3.105,0.322-4.507,0.88c-6.216,2.474-12.374,5.093-18.557,7.649
			c-0.839,0.347-1.51,0.591-1.289,1.847c1.667,9.513,3.246,19.041,4.858,28.563C48.842,58.048,48.945,58.232,49.068,58.564z
			 M18.919,52.873c2.028-3.852,3.923-7.489,5.876-11.095c0.18-0.332,0.722-0.655,1.102-0.663c2.885-0.055,5.771-0.03,8.731-0.03
			c0,4.063,0,7.881,0,11.787C29.42,52.873,24.329,52.873,18.919,52.873z"/>
		<path class="st6" d="M27.298,68.827c-4.456-0.01-8.041,3.562-7.994,7.966c0.046,4.339,3.564,7.806,7.933,7.819
			c4.547,0.013,7.916-3.377,7.91-7.959C35.141,72.27,31.697,68.836,27.298,68.827z M27.348,73.199
			c1.945,0.038,3.414,1.538,3.424,3.497c0.01,2.033-1.58,3.605-3.585,3.546c-1.924-0.056-3.447-1.598-3.462-3.507
			C23.708,74.762,25.349,73.161,27.348,73.199z"/>
		<path class="st6" d="M102.872,84.612c4.377-0.028,7.815-3.5,7.811-7.889c-0.004-4.49-3.491-7.927-8.008-7.893
			c-4.375,0.033-7.819,3.503-7.828,7.887C94.838,81.157,98.38,84.641,102.872,84.612z M102.713,80.241
			c-1.924-0.025-3.441-1.549-3.461-3.477c-0.021-2.014,1.564-3.583,3.591-3.556c1.968,0.027,3.413,1.49,3.433,3.479
			C106.296,78.752,104.777,80.268,102.713,80.241z"/>
		<path class="st6" d="M86.156,84.375c4.433,0.005,7.863-3.386,7.876-7.785c0.014-4.534-3.432-8.085-7.842-8.084
			c-4.379,0.001-8.032,3.684-7.974,8.04C78.274,80.883,81.811,84.37,86.156,84.375z M82.617,76.532
			c-0.036-1.928,1.658-3.642,3.591-3.633c1.808,0.009,3.466,1.665,3.521,3.518c0.057,1.921-1.652,3.635-3.602,3.611
			C84.248,80.005,82.653,78.415,82.617,76.532z"/>
	</g>
	<g>
		<path class="st6" d="M4.949,28.037c0-0.926,0-1.793,0-2.76c0.617,0,1.136-0.038,1.649,0.006
			c6.701,0.578,12.497-1.551,17.679-5.729c2.226-1.795,4.683-3.321,7.584-3.747c1.807-0.266,3.657-0.244,5.49-0.317
			c0.978-0.039,1.959-0.007,2.994-0.007c0-1.412,0-2.739,0-3.981c-6.908-0.87-13.235,0.297-18.749,4.746
			c-1.37,1.106-2.889,2.047-4.412,2.939c-1.975,1.156-4.129,1.809-6.445,1.814c-1.896,0.005-3.792,0.001-5.795,0.001
			c0-0.976,0-1.907,0-2.844C3.25,19.862,1.615,21.506,0,23.131C1.539,24.657,3.187,26.291,4.949,28.037z"/>
		<path class="st6" d="M0.057,12.055c1.474,1.477,3.096,3.102,4.855,4.864c0-1.005,0-1.886,0-2.857c1.283,0,2.428-0.047,3.568,0.008
			c5.317,0.259,9.963-1.478,14.202-4.588c1.792-1.315,3.677-2.518,5.596-3.642c2.023-1.186,4.3-1.54,6.62-1.574
			c1.799-0.026,3.599-0.005,5.444-0.005c0-1.438,0-2.768,0-4.022c-6.984-0.83-13.342,0.431-18.907,4.918
			c-2.344,1.89-4.839,3.748-7.9,4.222c-2.796,0.433-5.656,0.452-8.576,0.66c0-1.203,0-2.112,0-2.987
			C3.326,8.717,1.711,10.366,0.057,12.055z"/>
		<path class="st6" d="M0.079,34.552c1.438,1.443,3.062,3.071,4.814,4.828c0-1.036,0-1.949,0-2.974c1.198,0,2.277-0.068,3.344,0.011
			c5.632,0.418,10.469-1.512,14.894-4.84c1.619-1.218,3.347-2.309,5.11-3.311c1.91-1.086,4.03-1.544,6.234-1.552
			c1.934-0.006,3.868-0.001,5.865-0.001c0-1.409,0-2.738,0-4.177c-1.863,0-3.692,0.03-5.521-0.006
			c-4.977-0.097-9.144,1.959-13.034,4.809c-2.404,1.761-4.776,3.614-7.746,4.348c-1.167,0.288-2.378,0.475-3.578,0.534
			c-1.797,0.088-3.602,0.023-5.474,0.023c0-0.983,0-1.892,0-2.757C3.352,31.174,1.73,32.848,0.079,34.552z"/>
	</g>
</g>
</svg>
