<?xml version="1.0" encoding="utf-8"?>
<!-- Generator: Adobe Illustrator 21.0.2, SVG Export Plug-In . SVG Version: 6.00 Build 0)  -->
<svg version="1.1" id="Слой_1" xmlns="http://www.w3.org/2000/svg" xmlns:xlink="http://www.w3.org/1999/xlink" x="0px" y="0px"
	 viewBox="0 0 118.563 91.701" style="enable-background:new 0 0 118.563 91.701;" xml:space="preserve">
<style type="text/css">
	.st0{fill-rule:evenodd;clip-rule:evenodd;fill:#676767;stroke:#676767;stroke-width:0.216;stroke-miterlimit:22.9256;}
	.st1{fill-rule:evenodd;clip-rule:evenodd;fill:#676767;}
	.st2{fill-rule:evenodd;clip-rule:evenodd;fill:#6BC7E4;}
	.st3{fill-rule:evenodd;clip-rule:evenodd;fill:#00B4EC;}
	.st4{fill-rule:evenodd;clip-rule:evenodd;fill:#DC2A1B;}
	.st5{fill-rule:evenodd;clip-rule:evenodd;fill:#F0F0F0;}
	.st6{fill:#009FE3;}
	.st7{fill:#DADADA;}
	.st8{fill:#00B4EC;}
	.st9{fill:#FFFFFF;}
</style>
<g>
	<g>
		<path class="st6" d="M25.997,28.037c0-0.926,0-1.793,0-2.76c0.617,0,1.136-0.038,1.649,0.006
			c6.701,0.578,12.497-1.551,17.679-5.729c2.226-1.795,4.683-3.321,7.584-3.747c1.807-0.266,3.657-0.244,5.49-0.317
			c0.978-0.039,1.959-0.007,2.994-0.007c0-1.412,0-2.739,0-3.981c-6.908-0.87-13.235,0.297-18.749,4.746
			c-1.37,1.106-2.889,2.047-4.412,2.939c-1.975,1.156-4.129,1.809-6.445,1.814c-1.896,0.005-3.792,0.001-5.795,0.001
			c0-0.976,0-1.907,0-2.844c-1.693,1.703-3.328,3.347-4.943,4.972C22.587,24.657,24.235,26.291,25.997,28.037z"/>
		<path class="st6" d="M21.105,12.055c1.474,1.477,3.096,3.102,4.855,4.864c0-1.005,0-1.886,0-2.857
			c1.283,0,2.428-0.047,3.568,0.008c5.317,0.259,9.963-1.478,14.202-4.588c1.792-1.315,3.677-2.518,5.596-3.642
			c2.023-1.186,4.3-1.54,6.62-1.574c1.799-0.026,3.599-0.005,5.444-0.005c0-1.438,0-2.768,0-4.022
			c-6.984-0.83-13.342,0.431-18.907,4.918c-2.344,1.89-4.839,3.748-7.9,4.222c-2.796,0.433-5.656,0.452-8.576,0.66
			c0-1.203,0-2.112,0-2.987C24.374,8.717,22.759,10.366,21.105,12.055z"/>
		<path class="st6" d="M21.127,34.552c1.438,1.443,3.062,3.071,4.814,4.828c0-1.036,0-1.949,0-2.974
			c1.198,0,2.277-0.068,3.344,0.011c5.632,0.418,10.469-1.512,14.894-4.84c1.619-1.218,3.347-2.309,5.11-3.311
			c1.91-1.086,4.03-1.544,6.234-1.552c1.934-0.006,3.868-0.001,5.865-0.001c0-1.409,0-2.738,0-4.177
			c-1.863,0-3.692,0.03-5.521-0.006c-4.977-0.097-9.144,1.959-13.034,4.809c-2.404,1.761-4.776,3.614-7.746,4.348
			c-1.167,0.288-2.378,0.475-3.578,0.534c-1.797,0.088-3.602,0.023-5.474,0.023c0-0.983,0-1.892,0-2.757
			C24.4,31.174,22.778,32.848,21.127,34.552z"/>
	</g>
	<path class="st6" d="M25.012,69.774c-6.055,0-10.964,4.909-10.964,10.964c0,6.055,4.909,10.964,10.964,10.964
		c6.055,0,10.964-4.909,10.964-10.964C35.976,74.682,31.067,69.774,25.012,69.774z M25.012,86.592c-3.233,0-5.854-2.621-5.854-5.854
		c0-3.233,2.621-5.854,5.854-5.854c3.233,0,5.854,2.621,5.854,5.854C30.867,83.97,28.246,86.592,25.012,86.592z"/>
	<path class="st6" d="M93.505,69.774c-6.055,0-10.964,4.909-10.964,10.964c0,6.055,4.909,10.964,10.964,10.964
		c6.055,0,10.964-4.909,10.964-10.964C104.468,74.682,99.56,69.774,93.505,69.774z M93.505,86.592c-3.233,0-5.854-2.621-5.854-5.854
		c0-3.233,2.621-5.854,5.854-5.854c3.233,0,5.854,2.621,5.854,5.854C99.359,83.97,96.738,86.592,93.505,86.592z"/>
	<path class="st6" d="M110.893,49.024c-2.084-3.508-14.137-13.29-16.854-13.791c-7.194-1.328-14.43-2.301-21.747-2.538
		c-2.893-0.094-5.802-0.162-8.686,0.03c-5.351,0.357-10.454,1.811-15.406,3.86c-5.564,2.302-10.644,5.403-15.403,9.062
		c-1.801,1.385-3.368,3.108-5.781,3.552c-2.04,0.376-4.044,0.942-6.07,1.399c-4.08,0.921-8.225,1.624-12.053,3.421
		c-1.98,0.93-4.269,2.126-5.78,3.849C0.357,61.015,0.007,68.148,0,73.131c-0.001,0.773,0.322,6.104,4.084,7.463
		c0.647,0.234,1.311,0.384,1.982,0.485l-0.005,0.069l0.406-0.01c0.088,0.01,0.603,0.008,1.478-0.004
		c0.1,0.004,0.199,0.014,0.301,0.014h3.083c-0.004-0.138-0.021-0.272-0.021-0.411c0-7.569,6.136-13.705,13.705-13.705
		c7.569,0,13.704,6.136,13.704,13.705c0,0.139-0.017,0.273-0.021,0.411h41.125c-0.004-0.138-0.021-0.272-0.021-0.411
		c0-7.569,6.136-13.705,13.705-13.705c7.569,0,13.705,6.136,13.705,13.705c0,0.139-0.017,0.273-0.021,0.411h2.83
		c3.685,0,8.84-5.521,8.532-11.653C118.209,62.71,115.707,57.127,110.893,49.024z M38.318,48.938
		c0.764-0.527,1.462-1.152,2.208-1.71c3.868-2.888,7.998-5.336,12.52-7.153c4.025-1.617,8.173-2.765,12.522-3.047
		c1.632-0.106,3.273-0.109,4.913-0.078v11.987H38.318z M74.847,49.104V37.232c5.465,0.256,10.867,1.035,16.26,1.942
		c4.04,0.679,10.638,7.229,12.755,9.93H74.847z"/>
</g>
</svg>
