<?xml version="1.0" encoding="utf-8"?>
<!-- Generator: Adobe Illustrator 21.0.2, SVG Export Plug-In . SVG Version: 6.00 Build 0)  -->
<svg version="1.1" id="Слой_1" xmlns="http://www.w3.org/2000/svg" xmlns:xlink="http://www.w3.org/1999/xlink" x="0px" y="0px"
	 viewBox="0 0 102.656 95.985" style="enable-background:new 0 0 102.656 95.985;" xml:space="preserve">
<style type="text/css">
	.st0{fill-rule:evenodd;clip-rule:evenodd;fill:#676767;stroke:#676767;stroke-width:0.216;stroke-miterlimit:22.9256;}
	.st1{fill-rule:evenodd;clip-rule:evenodd;fill:#676767;}
	.st2{fill-rule:evenodd;clip-rule:evenodd;fill:#6BC7E4;}
	.st3{fill-rule:evenodd;clip-rule:evenodd;fill:#00B4EC;}
	.st4{fill-rule:evenodd;clip-rule:evenodd;fill:#DC2A1B;}
	.st5{fill-rule:evenodd;clip-rule:evenodd;fill:#F0F0F0;}
	.st6{fill:#009FE3;}
	.st7{fill:#DADADA;}
	.st8{fill:#00B4EC;}
	.st9{fill:#FFFFFF;}
</style>
<g>
	<g>
		<g>
			<path class="st6" d="M4.949,28.037c0-0.926,0-1.793,0-2.76c0.617,0,1.136-0.038,1.649,0.006
				c6.701,0.578,12.497-1.551,17.679-5.729c2.226-1.795,4.683-3.321,7.584-3.747c1.807-0.266,3.657-0.244,5.49-0.317
				c0.978-0.039,1.959-0.007,2.994-0.007c0-1.412,0-2.739,0-3.981c-6.908-0.87-13.235,0.297-18.749,4.746
				c-1.37,1.106-2.889,2.047-4.412,2.939c-1.975,1.156-4.129,1.809-6.445,1.814c-1.896,0.005-3.792,0.001-5.795,0.001
				c0-0.976,0-1.907,0-2.844C3.25,19.862,1.615,21.506,0,23.131C1.539,24.657,3.187,26.291,4.949,28.037z"/>
			<path class="st6" d="M0.057,12.055c1.474,1.477,3.096,3.102,4.855,4.864c0-1.005,0-1.886,0-2.857
				c1.283,0,2.428-0.047,3.568,0.008c5.317,0.259,9.963-1.478,14.202-4.588c1.792-1.315,3.677-2.518,5.596-3.642
				c2.023-1.186,4.3-1.54,6.62-1.574c1.799-0.026,3.599-0.005,5.444-0.005c0-1.438,0-2.768,0-4.022
				c-6.984-0.83-13.342,0.431-18.907,4.918c-2.344,1.89-4.839,3.748-7.9,4.222c-2.796,0.433-5.656,0.452-8.576,0.66
				c0-1.203,0-2.112,0-2.987C3.326,8.717,1.711,10.366,0.057,12.055z"/>
			<path class="st6" d="M0.079,34.552c1.438,1.443,3.062,3.071,4.814,4.828c0-1.036,0-1.949,0-2.974
				c1.198,0,2.277-0.068,3.344,0.011c5.632,0.418,10.469-1.512,14.894-4.84c1.619-1.218,3.347-2.309,5.11-3.311
				c1.91-1.086,4.03-1.544,6.234-1.552c1.934-0.006,3.868-0.001,5.865-0.001c0-1.409,0-2.738,0-4.177
				c-1.863,0-3.692,0.03-5.521-0.006c-4.977-0.097-9.144,1.959-13.034,4.809c-2.404,1.761-4.776,3.614-7.746,4.348
				c-1.167,0.288-2.378,0.475-3.578,0.534c-1.797,0.088-3.602,0.023-5.474,0.023c0-0.983,0-1.892,0-2.757
				C3.352,31.174,1.73,32.848,0.079,34.552z"/>
		</g>
		<path class="st6" d="M86.266,62.806c-9.237-0.065-16.719,7.309-16.778,16.538c-0.058,9.07,7.373,16.6,16.415,16.635
			c9.3,0.036,16.705-7.269,16.753-16.527C102.702,70.341,95.346,62.87,86.266,62.806z M86.01,85.424
			c-3.289-0.013-5.991-2.751-5.97-6.05c0.021-3.356,2.742-6.039,6.102-6.015c3.302,0.023,5.978,2.741,5.961,6.054
			C92.086,82.78,89.393,85.437,86.01,85.424z"/>
		<path class="st6" d="M18.784,75.215C12.905,75.193,8.3,79.735,8.276,85.581c-0.024,5.746,4.599,10.393,10.353,10.404
			c5.72,0.011,10.417-4.666,10.419-10.375C29.048,79.935,24.409,75.237,18.784,75.215z M18.644,90.86
			c-2.914-0.006-5.256-2.359-5.243-5.269c0.013-2.961,2.345-5.261,5.322-5.25c2.849,0.011,5.199,2.391,5.198,5.265
			C23.92,88.496,21.542,90.865,18.644,90.86z"/>
		<path class="st6" d="M95.385,57.189c-1.456-2.444-3.562-4.172-6.224-5.138c-0.83-0.301-1.071-0.663-1.066-1.516
			c0.037-6.463,0.022-12.926,0.023-19.389c0-0.488,0-0.975,0-1.538c-0.605,0-1.023,0-1.44,0c-10.223,0-20.445,0.015-30.668-0.024
			c-0.982-0.004-1.348,0.308-1.64,1.232c-2.055,6.515-4.206,12.999-6.262,19.513c-0.314,0.994-0.767,1.301-1.784,1.268
			c-2.405-0.077-4.815-0.021-7.223-0.029c-0.448-0.002-0.895-0.049-1.441-0.081c0-1.684,0-3.234,0-4.907c-0.8,0-1.495,0-2.351,0
			c0-3.914,0-7.767,0-11.613h-2.592c0,3.847,0,7.691,0,11.56c-0.867,0.041-1.565,0.073-2.403,0.113c0,1.659,0,3.237,0,4.93
			c-0.643,0-1.143,0-1.642,0c-4.013,0.001-8.028-0.061-12.038,0.05c-0.926,0.026-2.077,0.402-2.71,1.033
			c-2.566,2.561-3.467,5.964-4.493,9.385c0.86,0.216,1.543,0.388,2.382,0.599c-0.556,2.708-1.087,5.291-1.627,7.922
			c-0.837-0.133-1.535-0.243-2.229-0.353c-0.564,2.627-0.488,5.099,0.214,6.372c0.161-0.15,0.315-0.286,0.46-0.43
			c6.955-6.919,17.474-5.43,22.235,3.189c0.431,0.78,0.971,0.788,1.652,0.788c10.899,0,21.797,0.004,32.696,0.002
			c0.44,0,0.879-0.055,1.284-0.082c-0.868-8.118,3.244-13.396,9.387-17.513c6.471-4.336,13.224-3.725,20.109-0.826
			C96.562,60.045,96.204,58.564,95.385,57.189z M70.569,46.483c-5.417,0-10.836,0-16.411,0c1.115-3.433,2.185-6.756,3.292-10.067
			c0.083-0.249,0.437-0.581,0.668-0.582c4.124-0.035,8.249-0.026,12.451-0.026C70.569,39.415,70.569,42.9,70.569,46.483z
			 M83.794,46.505c-2.106,0-4.15,0-6.29,0c0-3.522,0-7.029,0-10.626c2.079,0,4.121,0,6.29,0
			C83.794,39.473,83.794,42.951,83.794,46.505z"/>
	</g>
</g>
</svg>
