<svg x="0px" y="0px" viewBox="0 0 104.693 95.083" style="enable-background:new 0 0 104.693 95.083;">
    <g>
        <g>
            <path class="st6" d="M4.949,28.037c0-0.926,0-1.793,0-2.76c0.617,0,1.136-0.038,1.649,0.006
			c6.701,0.578,12.497-1.551,17.679-5.729c2.226-1.795,4.683-3.321,7.584-3.747c1.807-0.266,3.657-0.244,5.49-0.317
			c0.978-0.039,1.959-0.007,2.994-0.007c0-1.412,0-2.739,0-3.981c-6.908-0.87-13.235,0.297-18.749,4.746
			c-1.37,1.106-2.889,2.047-4.412,2.939c-1.975,1.156-4.129,1.809-6.445,1.814c-1.896,0.005-3.792,0.001-5.795,0.001
			c0-0.976,0-1.907,0-2.844C3.25,19.862,1.615,21.506,0,23.131C1.539,24.657,3.187,26.291,4.949,28.037z" />
            <path class="st6" d="M0.057,12.055c1.474,1.477,3.096,3.102,4.855,4.864c0-1.005,0-1.886,0-2.857c1.283,0,2.428-0.047,3.568,0.008
			c5.317,0.259,9.963-1.478,14.202-4.588c1.792-1.315,3.677-2.518,5.596-3.642c2.023-1.186,4.3-1.54,6.62-1.574
			c1.799-0.026,3.599-0.005,5.444-0.005c0-1.438,0-2.768,0-4.022c-6.984-0.83-13.342,0.431-18.907,4.918
			c-2.344,1.89-4.839,3.748-7.9,4.222c-2.796,0.433-5.656,0.452-8.576,0.66c0-1.203,0-2.112,0-2.987
			C3.326,8.717,1.711,10.366,0.057,12.055z" />
            <path class="st6" d="M0.079,34.552c1.438,1.443,3.062,3.071,4.814,4.828c0-1.036,0-1.949,0-2.974c1.198,0,2.277-0.068,3.344,0.011
			c5.632,0.418,10.469-1.512,14.894-4.84c1.619-1.218,3.347-2.309,5.11-3.311c1.91-1.086,4.03-1.544,6.234-1.552
			c1.934-0.006,3.868-0.001,5.865-0.001c0-1.409,0-2.738,0-4.177c-1.863,0-3.692,0.03-5.521-0.006
			c-4.977-0.097-9.144,1.959-13.034,4.809c-2.404,1.761-4.776,3.614-7.746,4.348c-1.167,0.288-2.378,0.475-3.578,0.534
			c-1.797,0.088-3.602,0.023-5.474,0.023c0-0.983,0-1.892,0-2.757C3.352,31.174,1.73,32.848,0.079,34.552z" />
        </g>
        <g>
            <path class="st6" d="M18.081,71.943c0.206-0.609,0.649-0.986,1.184-1.314c1.082-0.664,2.135-1.375,3.207-2.056
			c0.752-0.478,1.137-1.149,1.149-2.04c0.018-1.398,0.043-2.796,0.057-4.194c0.009-0.915-0.364-1.628-1.137-2.14
			c-1.142-0.755-2.273-1.527-3.407-2.294c-0.844-0.571-1.05-1.256-0.651-2.19c0.937-2.193,1.878-4.384,2.822-6.575
			c0.354-0.822,1.01-1.169,1.872-0.985c1.352,0.288,2.706,0.572,4.052,0.886c0.967,0.226,1.774-0.006,2.474-0.705
			c0.929-0.926,1.865-1.847,2.816-2.75c0.732-0.694,0.985-1.504,0.777-2.493c-0.275-1.312-0.514-2.631-0.764-3.948
			c-0.189-0.997,0.126-1.606,1.057-1.983c2.249-0.91,4.503-1.811,6.757-2.709c0.725-0.289,1.464-0.053,1.891,0.601
			c0.787,1.205,1.572,2.412,2.339,3.63c0.477,0.756,1.148,1.154,2.031,1.171c1.44,0.028,2.881,0.038,4.321,0.049
			c0.824,0.006,1.483-0.343,1.946-1.011c0.821-1.183,1.621-2.381,2.42-3.578c0.499-0.747,1.232-0.997,2.057-0.647
			c2.246,0.954,4.489,1.916,6.73,2.883c0.766,0.331,1.112,1.008,0.939,1.829c-0.287,1.367-0.578,2.733-0.891,4.095
			c-0.218,0.949,0,1.75,0.685,2.441c0.964,0.972,1.92,1.952,2.873,2.936c0.623,0.643,1.379,0.859,2.242,0.699
			c1.373-0.255,2.744-0.529,4.115-0.795c0.984-0.19,1.597,0.149,1.969,1.077c0.856,2.135,1.717,4.267,2.574,6.402
			c0.471,1.174,0.297,1.731-0.766,2.422c-1.136,0.738-2.281,1.461-3.415,2.202c-0.728,0.476-1.081,1.16-1.088,2.033
			c-0.01,1.384-0.037,2.768-0.051,4.151c-0.009,0.932,0.369,1.647,1.162,2.166c1.169,0.764,2.322,1.553,3.47,2.35
			c0.758,0.526,0.939,1.225,0.579,2.067c-0.921,2.154-1.842,4.308-2.763,6.462c-0.441,1.032-1.013,1.338-2.106,1.107
			c-1.284-0.272-2.568-0.542-3.846-0.838c-0.994-0.23-1.827-0.008-2.551,0.723c-0.942,0.951-1.912,1.876-2.876,2.805
			c-0.654,0.631-0.881,1.393-0.715,2.275c0.259,1.373,0.531,2.743,0.795,4.115c0.185,0.96-0.148,1.584-1.056,1.95
			c-2.265,0.912-4.532,1.817-6.798,2.726c-0.089,0.036-0.172,0.088-0.258,0.133c-0.198,0-0.396,0-0.593,0
			c-0.611-0.226-0.992-0.677-1.326-1.226c-0.674-1.109-1.402-2.185-2.113-3.272c-0.442-0.675-1.079-1.022-1.88-1.039
			c-1.37-0.03-2.74-0.025-4.109-0.066c-1.059-0.032-1.834,0.388-2.408,1.28c-0.741,1.15-1.524,2.273-2.299,3.401
			c-0.468,0.682-1.184,0.893-1.929,0.576c-2.234-0.95-4.466-1.904-6.697-2.861c-0.896-0.385-1.214-1.016-1.005-1.975
			c0.296-1.365,0.593-2.73,0.893-4.094c0.191-0.869-0.028-1.624-0.642-2.258c-0.973-1.003-1.961-1.992-2.933-2.995
			c-0.646-0.667-1.418-0.883-2.317-0.707c-1.33,0.261-2.66,0.519-3.99,0.778c-1.049,0.204-1.642-0.102-2.043-1.091
			c-0.769-1.896-1.52-3.799-2.286-5.696c-0.166-0.412-0.364-0.811-0.547-1.216C18.081,72.395,18.081,72.169,18.081,71.943z
			 M70.598,64.581C70.499,52.142,60.31,42.284,47.972,42.587c-12.405,0.305-22.134,10.619-21.6,23.043
			C26.89,77.7,36.97,87.197,49.166,86.795C61.274,86.396,70.67,76.495,70.598,64.581z" />
            <path class="st6" d="M68.496,64.674c0.066,10.905-8.914,19.976-19.843,20.038c-11.08,0.063-20.093-8.71-20.194-19.89
			c-0.1-11.076,8.854-20.087,19.898-20.145C59.449,44.619,68.428,53.535,68.496,64.674z M59.367,64.779
			c0.004-6.126-4.837-10.973-10.965-10.977c-5.949-0.004-10.816,4.901-10.828,10.912c-0.011,5.92,4.901,10.874,10.782,10.873
			C54.454,75.587,59.363,70.768,59.367,64.779z" />
            <g>
                <path class="st6" d="M104.693,29.068c-0.027,0.378-0.067,0.755-0.078,1.133c-0.022,0.734-0.029,1.468-0.042,2.202
				c-0.011,0.652-0.319,1.027-0.955,1.139c-0.834,0.147-1.667,0.303-2.505,0.422c-0.754,0.108-1.262,0.469-1.544,1.197
				c-0.305,0.789-0.664,1.556-1.011,2.328c-0.253,0.564-0.208,1.091,0.129,1.606c0.487,0.742,0.967,1.49,1.45,2.235
				c0.39,0.602,0.356,1.04-0.163,1.545c-1.132,1.102-2.273,2.194-3.417,3.284c-0.399,0.381-0.894,0.412-1.352,0.093
				c-0.706-0.492-1.418-0.978-2.103-1.498c-0.609-0.462-1.229-0.565-1.94-0.263c-0.779,0.331-1.574,0.623-2.362,0.931
				c-0.585,0.228-0.939,0.643-1.066,1.263c-0.177,0.871-0.365,1.74-0.559,2.607c-0.158,0.704-0.474,0.96-1.181,0.949
				c-1.595-0.025-3.191-0.059-4.786-0.095c-0.526-0.012-0.902-0.359-0.999-0.913c-0.16-0.903-0.321-1.806-0.468-2.711
				c-0.104-0.644-0.457-1.071-1.052-1.324c-0.805-0.343-1.604-0.698-2.405-1.051c-0.574-0.253-1.114-0.222-1.645,0.133
				c-0.751,0.502-1.514,0.984-2.274,1.471c-0.559,0.359-1.015,0.313-1.48-0.167c-1.089-1.126-2.174-2.256-3.256-3.388
				c-0.448-0.469-0.472-0.942-0.089-1.485c0.52-0.738,1.034-1.48,1.564-2.211c0.365-0.503,0.42-1.034,0.2-1.602
				c-0.337-0.868-0.673-1.737-1.023-2.599c-0.211-0.519-0.605-0.838-1.155-0.956c-0.883-0.19-1.766-0.377-2.65-0.564
				c-0.724-0.153-0.995-0.493-0.981-1.24c0.028-1.539,0.057-3.077,0.088-4.616c0.013-0.67,0.293-1.006,0.964-1.129
				c0.875-0.16,1.751-0.313,2.629-0.453c0.638-0.102,1.09-0.425,1.348-1.023c0.358-0.829,0.728-1.653,1.084-2.483
				c0.24-0.559,0.197-1.092-0.149-1.608c-0.502-0.75-0.985-1.513-1.473-2.272c-0.359-0.559-0.312-1.021,0.164-1.48
				c1.127-1.087,2.257-2.17,3.39-3.25c0.46-0.439,0.923-0.473,1.452-0.107c0.707,0.49,1.418,0.978,2.108,1.491
				c0.586,0.436,1.185,0.528,1.865,0.241c0.78-0.329,1.576-0.62,2.366-0.924c0.585-0.225,0.952-0.628,1.078-1.251
				c0.151-0.747,0.334-1.487,0.469-2.236c0.104-0.578,0.274-1.094,0.844-1.375c0.65,0,1.3,0,1.95,0
				c0.153,0.02,0.305,0.055,0.458,0.059c0.889,0.021,1.779,0.032,2.668,0.05c0.663,0.013,1.02,0.299,1.143,0.95
				c0.17,0.901,0.322,1.806,0.474,2.71c0.102,0.605,0.423,1.031,0.989,1.275c0.816,0.353,1.63,0.709,2.442,1.07
				c0.589,0.263,1.144,0.228,1.687-0.132c0.741-0.491,1.491-0.969,2.239-1.449c0.592-0.38,1.05-0.321,1.546,0.195
				c1.055,1.099,2.109,2.198,3.164,3.297c0.49,0.51,0.529,0.969,0.121,1.55c-0.519,0.739-1.038,1.477-1.565,2.21
				c-0.352,0.49-0.403,1.01-0.188,1.562c0.327,0.841,0.665,1.679,0.984,2.523c0.231,0.61,0.661,0.957,1.296,1.083
				c0.789,0.157,1.569,0.358,2.362,0.489c0.562,0.093,0.973,0.336,1.202,0.864C104.693,27.938,104.693,28.503,104.693,29.068z
				 M84.078,41.51c6.549-0.02,11.844-5.318,11.83-11.835c-0.015-6.617-5.299-11.855-11.939-11.835
				c-6.481,0.019-11.754,5.36-11.735,11.886C72.252,36.211,77.598,41.53,84.078,41.51z" />
                <path class="st6" d="M84.092,21.742c4.428,0.022,7.929,3.563,7.916,8.006c-0.013,4.348-3.629,7.883-8.035,7.856
				c-4.344-0.027-7.862-3.645-7.833-8.056C76.169,25.252,79.766,21.721,84.092,21.742z" />
            </g>
        </g>
    </g>
</svg>