<?xml version="1.0" encoding="utf-8"?>
<!-- Generator: Adobe Illustrator 21.0.2, SVG Export Plug-In . SVG Version: 6.00 Build 0)  -->
<svg version="1.1" id="Слой_1" xmlns="http://www.w3.org/2000/svg" xmlns:xlink="http://www.w3.org/1999/xlink" x="0px" y="0px"
	 viewBox="0 0 42.675 42.675" style="enable-background:new 0 0 42.675 42.675;" xml:space="preserve">
<style type="text/css">
	.st0{fill-rule:evenodd;clip-rule:evenodd;fill:#676767;stroke:#676767;stroke-width:0.216;stroke-miterlimit:22.9256;}
	.st1{fill-rule:evenodd;clip-rule:evenodd;fill:#676767;}
	.st2{fill-rule:evenodd;clip-rule:evenodd;fill:#6BC7E4;}
	.st3{fill-rule:evenodd;clip-rule:evenodd;fill:#00B4EC;}
	.st4{fill-rule:evenodd;clip-rule:evenodd;fill:#DC2A1B;}
	.st5{fill-rule:evenodd;clip-rule:evenodd;fill:#F0F0F0;}
	.st6{fill:#009FE3;}
	.st7{fill:#DADADA;}
	.st8{fill:#00B4EC;}
	.st9{fill:#FFFFFF;}
</style>
<g>
	<circle class="st8" cx="21.338" cy="21.338" r="21.338"/>
	<g>
		<path class="st9" d="M21.423,8.384c1.839,0.046,3.697,0.068,5.553,0.147c1.541,0.065,2.995,0.463,4.257,1.396
			c1.713,1.266,2.626,3.021,2.755,5.099c0.154,2.465,0.158,4.941,0.167,7.412c0.006,1.733-0.029,3.471-0.151,5.2
			c-0.25,3.533-2.751,6.127-6.271,6.47c-1.641,0.16-3.3,0.167-4.951,0.179c-2.199,0.016-4.399-0.014-6.598-0.055
			c-1.195-0.023-2.366-0.22-3.466-0.723c-2.09-0.955-3.318-2.601-3.835-4.81c-0.266-1.134-0.359-2.282-0.349-3.448
			c0.026-3.074-0.074-6.152,0.05-9.221c0.095-2.348,0.808-4.516,2.81-6.03c1.314-0.994,2.825-1.409,4.439-1.473
			C17.688,8.452,19.546,8.43,21.423,8.384z M21.358,10.794c0,0.014,0,0.027-0.001,0.041c-0.806,0-1.613-0.029-2.418,0.006
			c-1.403,0.061-2.819,0.066-4.204,0.271c-1.613,0.239-2.798,1.18-3.303,2.771c-0.248,0.783-0.39,1.626-0.42,2.447
			c-0.074,1.993-0.085,3.989-0.062,5.983c0.021,1.828,0.03,3.665,0.213,5.481c0.175,1.74,1.113,3.06,2.839,3.619
			c0.768,0.249,1.6,0.385,2.407,0.41c2.198,0.068,4.399,0.076,6.599,0.055c1.569-0.015,3.147-0.027,4.703-0.202
			c1.725-0.195,3.031-1.121,3.58-2.829c0.26-0.807,0.403-1.68,0.426-2.529c0.067-2.403,0.068-4.809,0.049-7.214
			c-0.011-1.378-0.038-2.763-0.189-4.13c-0.174-1.569-0.934-2.846-2.437-3.491c-0.689-0.295-1.464-0.484-2.211-0.53
			C25.075,10.842,23.215,10.84,21.358,10.794z"/>
		<path class="st9" d="M21.39,14.698c3.621,0.012,6.586,3.027,6.576,6.685c-0.01,3.664-2.981,6.65-6.611,6.645
			c-3.647-0.005-6.618-3.022-6.597-6.7C14.78,17.667,17.763,14.685,21.39,14.698z M17.145,21.372
			c-0.003,2.334,1.883,4.237,4.205,4.243c2.338,0.007,4.229-1.896,4.234-4.259c0.005-2.316-1.902-4.244-4.208-4.256
			C19.061,17.088,17.148,19.02,17.145,21.372z"/>
		<path class="st9" d="M28.165,12.903c0.882-0.006,1.583,0.695,1.581,1.582c-0.002,0.855-0.707,1.574-1.554,1.584
			c-0.852,0.01-1.592-0.732-1.592-1.596C26.602,13.622,27.312,12.909,28.165,12.903z"/>
	</g>
</g>
</svg>
