<?xml version="1.0" encoding="utf-8"?>
<!-- Generator: Adobe Illustrator 21.0.2, SVG Export Plug-In . SVG Version: 6.00 Build 0)  -->
<svg version="1.1" id="Слой_1" xmlns="http://www.w3.org/2000/svg" xmlns:xlink="http://www.w3.org/1999/xlink" x="0px" y="0px"
	 viewBox="0 0 42.675 42.676" style="enable-background:new 0 0 42.675 42.676;" xml:space="preserve">
<style type="text/css">
	.st0{fill-rule:evenodd;clip-rule:evenodd;fill:#676767;stroke:#676767;stroke-width:0.216;stroke-miterlimit:22.9256;}
	.st1{fill-rule:evenodd;clip-rule:evenodd;fill:#676767;}
	.st2{fill-rule:evenodd;clip-rule:evenodd;fill:#6BC7E4;}
	.st3{fill-rule:evenodd;clip-rule:evenodd;fill:#00B4EC;}
	.st4{fill-rule:evenodd;clip-rule:evenodd;fill:#DC2A1B;}
	.st5{fill-rule:evenodd;clip-rule:evenodd;fill:#F0F0F0;}
	.st6{fill:#009FE3;}
	.st7{fill:#DADADA;}
	.st8{fill:#00B4EC;}
	.st9{fill:#FFFFFF;}
</style>
<g>
	<path class="st8" d="M21.341,0C9.919-0.043,0.308,9.317,0.007,20.736c-0.302,12.279,9.74,21.809,21.033,21.938
		c11.723,0.129,21.636-9.488,21.636-21.337S32.848-0.043,21.341,0z"/>
	<path class="st9" d="M33.744,13.642c-0.913,0.405-1.894,0.679-2.924,0.801c1.051-0.63,1.858-1.628,2.238-2.817
		c-0.984,0.583-2.073,1.007-3.233,1.235c-0.929-0.989-2.252-1.608-3.716-1.608c-2.811,0-5.091,2.279-5.091,5.091
		c0,0.399,0.045,0.787,0.132,1.16c-4.231-0.212-7.982-2.239-10.493-5.319c-0.438,0.752-0.689,1.626-0.689,2.559
		c0,1.766,0.899,3.324,2.265,4.237c-0.835-0.026-1.62-0.255-2.306-0.637c0,0.021,0,0.042,0,0.064c0,2.467,1.755,4.524,4.084,4.992
		c-0.427,0.117-0.877,0.178-1.341,0.178c-0.328,0-0.647-0.032-0.958-0.091c0.648,2.022,2.528,3.494,4.755,3.535
		c-1.742,1.366-3.937,2.179-6.322,2.179c-0.411,0-0.816-0.024-1.214-0.071c2.253,1.445,4.929,2.287,7.804,2.287
		c9.363,0,14.484-7.757,14.484-14.484c0-0.221-0.005-0.44-0.015-0.658C32.198,15.56,33.062,14.663,33.744,13.642L33.744,13.642z"/>
</g>
</svg>
