<?xml version="1.0" encoding="utf-8"?>
<!-- Generator: Adobe Illustrator 21.0.2, SVG Export Plug-In . SVG Version: 6.00 Build 0)  -->
<svg version="1.1" id="Слой_1" xmlns="http://www.w3.org/2000/svg" xmlns:xlink="http://www.w3.org/1999/xlink" x="0px" y="0px"
	 viewBox="0 0 42.675 42.675" style="enable-background:new 0 0 42.675 42.675;" xml:space="preserve">
<style type="text/css">
	.st0{fill-rule:evenodd;clip-rule:evenodd;fill:#676767;stroke:#676767;stroke-width:0.216;stroke-miterlimit:22.9256;}
	.st1{fill-rule:evenodd;clip-rule:evenodd;fill:#676767;}
	.st2{fill-rule:evenodd;clip-rule:evenodd;fill:#6BC7E4;}
	.st3{fill-rule:evenodd;clip-rule:evenodd;fill:#00B4EC;}
	.st4{fill-rule:evenodd;clip-rule:evenodd;fill:#DC2A1B;}
	.st5{fill-rule:evenodd;clip-rule:evenodd;fill:#F0F0F0;}
	.st6{fill:#009FE3;}
	.st7{fill:#DADADA;}
	.st8{fill:#00B4EC;}
	.st9{fill:#FFFFFF;}
</style>
<g>
	<circle class="st8" cx="21.338" cy="21.338" r="21.338"/>
	<path class="st9" d="M30.856,21.174c0,0,3.792-5.349,4.169-7.107c0.126-0.628-0.151-0.98-0.804-0.98c0,0-2.185,0-3.29,0
		c-0.753,0-1.03,0.327-1.256,0.804c0,0-1.779,3.79-3.943,6.178c-0.695,0.772-1.048,1.004-1.432,1.004
		c-0.309,0-0.452-0.258-0.452-0.954v-6.103c0-0.854-0.1-1.105-0.804-1.105h-5.274c-0.402,0-0.653,0.234-0.653,0.552
		c0,0.804,1.231,0.986,1.231,3.164v4.495c0,0.904-0.05,1.256-0.477,1.256c-1.13,0-3.817-3.893-5.324-8.313
		c-0.301-0.904-0.628-1.155-1.482-1.155h-3.29c-0.477,0-0.829,0.326-0.829,0.804c0,0.879,1.03,4.948,5.073,10.397
		c2.712,3.667,6.278,5.651,9.493,5.651c1.959,0,2.436-0.326,2.436-1.155v-2.813c0-0.703,0.276-1.005,0.678-1.005
		c0.452,0,1.25,0.145,3.114,1.984c2.21,2.11,2.361,2.989,3.566,2.989H35c0.377,0,0.728-0.176,0.728-0.804
		c0-0.829-1.08-2.31-2.738-4.069c-0.678-0.904-1.783-1.884-2.135-2.336C30.354,22.028,30.504,21.727,30.856,21.174z"/>
</g>
</svg>
