<?xml version="1.0" encoding="utf-8"?>
<!-- Generator: Adobe Illustrator 21.0.2, SVG Export Plug-In . SVG Version: 6.00 Build 0)  -->
<svg version="1.1" id="Слой_1" xmlns="http://www.w3.org/2000/svg" xmlns:xlink="http://www.w3.org/1999/xlink" x="0px" y="0px"
	 viewBox="0 0 615.705 145.622" style="enable-background:new 0 0 615.705 145.622;" xml:space="preserve">
<style type="text/css">
	.st0{fill-rule:evenodd;clip-rule:evenodd;fill:#676767;stroke:#676767;stroke-width:0.216;stroke-miterlimit:22.9256;}
	.st1{fill-rule:evenodd;clip-rule:evenodd;fill:#676767;}
	.st2{fill-rule:evenodd;clip-rule:evenodd;fill:#6BC7E4;}
	.st3{fill-rule:evenodd;clip-rule:evenodd;fill:#00B4EC;}
	.st4{fill-rule:evenodd;clip-rule:evenodd;fill:#DC2A1B;}
	.st5{fill-rule:evenodd;clip-rule:evenodd;fill:#F0F0F0;}
	.st6{fill:#009FE3;}
	.st7{fill:#DADADA;}
	.st8{fill:#00B4EC;}
	.st9{fill:#FFFFFF;}
</style>
<g>
	<path class="st0" d="M0.179,144.978l16.932-31.953h4.78l4.933,31.953h-3.881l-1.401-9.193H9.384l-4.787,9.193H0.179L0.179,144.978z
		 M11.154,132.483h9.894l-1.157-8.018c-0.481-3.183-0.773-5.839-0.892-7.959c-0.69,1.83-1.686,3.994-3.01,6.508L11.154,132.483
		L11.154,132.483z M31.455,144.978l6.271-31.953h3.972l-6.271,31.953H31.455L31.455,144.978z M42.754,144.978l6.271-31.953h12.549
		c2.473,0,4.355,0.223,5.63,0.662c1.282,0.446,2.285,1.279,3.01,2.499c0.732,1.22,1.094,2.76,1.094,4.619
		c0,2.596-0.794,4.753-2.39,6.471c-1.589,1.711-4.16,2.826-7.713,3.332c1.087,0.855,1.916,1.703,2.474,2.529
		c1.233,1.882,2.223,3.823,2.975,5.824l2.313,6.017H64.5l-2.174-5.95c-0.773-2.142-1.658-4.002-2.648-5.563
		c-0.662-1.101-1.345-1.822-2.055-2.164c-0.711-0.342-1.861-0.513-3.456-0.513h-4.655l-2.787,14.191H42.754L42.754,144.978z
		 M50.195,127.306h5.533c2.564,0,4.229-0.03,5.003-0.089c1.519-0.156,2.759-0.521,3.728-1.086c0.969-0.565,1.714-1.331,2.244-2.291
		c0.536-0.952,0.801-1.986,0.801-3.087c0-0.93-0.195-1.74-0.592-2.432c-0.397-0.684-0.913-1.153-1.554-1.398
		c-0.641-0.245-1.735-0.372-3.275-0.372h-9.783L50.195,127.306L50.195,127.306z M108.844,133.732l3.972,0.58
		c-1.254,3.689-3.08,6.478-5.483,8.368c-2.397,1.889-5.087,2.834-8.076,2.834c-3.637,0-6.529-1.183-8.661-3.548
		c-2.132-2.373-3.198-5.764-3.198-10.175c0-5.749,1.623-10.509,4.864-14.273c2.885-3.354,6.473-5.028,10.758-5.028
		c3.177,0,5.748,0.907,7.713,2.722c1.965,1.815,3.108,4.254,3.421,7.319l-3.721,0.357c-0.411-2.306-1.233-4.024-2.467-5.162
		c-1.233-1.138-2.822-1.711-4.766-1.711c-3.665,0-6.633,1.733-8.891,5.206c-1.958,2.997-2.94,6.545-2.94,10.658
		c0,3.28,0.76,5.787,2.272,7.512c1.512,1.733,3.484,2.596,5.916,2.596c2.069,0,3.951-0.721,5.623-2.157
		C106.858,138.396,108.077,136.358,108.844,133.732L108.844,133.732z M117.69,131.598c0-5.697,1.54-10.301,4.626-13.827
		c3.087-3.518,6.835-5.281,11.232-5.281c3.734,0,6.779,1.294,9.128,3.89c2.348,2.588,3.526,6.062,3.526,10.42
		c0,3.109-0.592,5.995-1.777,8.65c-0.885,1.986-2.007,3.704-3.351,5.154c-1.352,1.443-2.794,2.559-4.334,3.34
		c-2.042,1.049-4.209,1.569-6.501,1.569c-2.397,0-4.578-0.61-6.55-1.83c-1.972-1.22-3.463-2.923-4.473-5.11
		C118.198,136.388,117.69,134.06,117.69,131.598L117.69,131.598z M121.577,131.806c0,1.874,0.363,3.6,1.094,5.169
		c0.732,1.569,1.826,2.796,3.275,3.682c1.449,0.885,2.975,1.331,4.571,1.331c1.547,0,3.017-0.387,4.411-1.168
		c1.393-0.773,2.641-1.859,3.742-3.25c1.101-1.383,1.972-3.094,2.606-5.124c0.634-2.023,0.955-4.024,0.955-5.988
		c0-3.183-0.836-5.72-2.515-7.609c-1.672-1.889-3.742-2.834-6.201-2.834c-3.143,0-5.923,1.428-8.326,4.284
		C122.783,123.156,121.577,126.994,121.577,131.806L121.577,131.806z M148.303,144.978l6.271-31.953h4.215l4.933,11.997
		c1.505,3.659,2.696,6.746,3.574,9.245c0.509,1.458,1.094,3.421,1.763,5.891c0.39-2.715,0.871-5.497,1.435-8.36l3.644-18.773h3.902
		l-6.243,31.953h-4.027l-7.219-18.475c-1.296-3.265-2.369-6.315-3.233-9.141c-0.272,2.417-0.711,5.132-1.296,8.152l-3.818,19.465
		H148.303L148.303,144.978z M178.637,144.978l6.271-31.953h9.023c2.16,0,3.812,0.164,4.961,0.498
		c1.631,0.454,3.024,1.257,4.181,2.41c1.157,1.16,2.028,2.596,2.613,4.329c0.585,1.725,0.878,3.667,0.878,5.816
		c0,2.573-0.362,4.916-1.094,7.029c-0.725,2.12-1.679,3.979-2.857,5.586c-1.177,1.599-2.411,2.856-3.7,3.771
		c-1.289,0.907-2.808,1.577-4.564,2.016c-1.338,0.335-2.975,0.498-4.926,0.498H178.637L178.637,144.978z M183.32,141.364h4.752
		c2.139,0,4.048-0.208,5.714-0.625c1.038-0.26,1.923-0.647,2.662-1.16c0.969-0.654,1.854-1.517,2.641-2.596
		c1.038-1.428,1.867-3.05,2.487-4.879c0.62-1.822,0.934-3.905,0.934-6.233c0-2.588-0.425-4.574-1.268-5.965
		c-0.85-1.391-1.93-2.313-3.24-2.767c-0.968-0.335-2.473-0.498-4.522-0.498h-5.309L183.32,141.364L183.32,141.364z M209.515,144.978
		l6.271-31.953h3.972l-6.271,31.953H209.515L209.515,144.978z M228.506,144.978l5.567-28.338h-10.061l0.718-3.615h23.767
		l-0.718,3.615h-9.734l-5.567,28.338H228.506L228.506,144.978z M246.87,144.978h3.972l6.271-31.953h-3.972L246.87,144.978
		L246.87,144.978z M259.967,131.598c0-5.697,1.54-10.301,4.627-13.827c3.087-3.518,6.836-5.281,11.232-5.281
		c3.735,0,6.78,1.294,9.128,3.89c2.348,2.588,3.526,6.062,3.526,10.42c0,3.109-0.592,5.995-1.777,8.65
		c-0.885,1.986-2.007,3.704-3.352,5.154c-1.352,1.443-2.794,2.559-4.334,3.34c-2.042,1.049-4.209,1.569-6.501,1.569
		c-2.397,0-4.578-0.61-6.55-1.83c-1.972-1.22-3.463-2.923-4.473-5.11C260.475,136.388,259.967,134.06,259.967,131.598
		L259.967,131.598z M263.855,131.806c0,1.874,0.362,3.6,1.094,5.169c0.732,1.569,1.825,2.796,3.275,3.682
		c1.449,0.885,2.975,1.331,4.571,1.331c1.547,0,3.017-0.387,4.411-1.168c1.393-0.773,2.641-1.859,3.742-3.25
		c1.101-1.383,1.972-3.094,2.606-5.124c0.634-2.023,0.954-4.024,0.954-5.988c0-3.183-0.836-5.72-2.515-7.609
		c-1.672-1.889-3.742-2.834-6.201-2.834c-3.143,0-5.923,1.428-8.327,4.284C265.06,123.156,263.855,126.994,263.855,131.806
		L263.855,131.806z M290.58,144.978l6.271-31.953h4.216L306,125.023c1.505,3.659,2.697,6.746,3.575,9.245
		c0.509,1.458,1.094,3.421,1.763,5.891c0.39-2.715,0.871-5.497,1.435-8.36l3.644-18.773h3.902l-6.243,31.953h-4.027l-7.219-18.475
		c-1.296-3.265-2.369-6.315-3.233-9.141c-0.272,2.417-0.711,5.132-1.296,8.152l-3.818,19.465H290.58L290.58,144.978z M321.5,144.978
		l6.271-31.953h3.972l-6.271,31.953H321.5L321.5,144.978z M332.59,144.978l6.271-31.953h4.215l4.933,11.997
		c1.505,3.659,2.697,6.746,3.575,9.245c0.508,1.458,1.094,3.421,1.763,5.891c0.39-2.715,0.871-5.497,1.435-8.36l3.644-18.773h3.902
		l-6.243,31.953h-4.027l-7.219-18.475c-1.296-3.265-2.369-6.315-3.233-9.141c-0.272,2.417-0.711,5.132-1.296,8.152l-3.819,19.465
		H332.59L332.59,144.978z M378.205,132.394l0.718-3.615h13.1l-2.55,12.994c-1.644,1.101-3.526,2.001-5.63,2.7
		c-2.111,0.692-4.188,1.041-6.229,1.041c-4.355,0-7.609-1.398-9.755-4.202c-1.811-2.365-2.717-5.415-2.717-9.126
		c0-3.838,0.794-7.326,2.376-10.472c1.589-3.139,3.588-5.467,6.006-6.969c2.411-1.502,5.093-2.254,8.048-2.254
		c2.125,0,4.027,0.409,5.713,1.235c1.693,0.818,2.982,1.919,3.881,3.295c0.899,1.376,1.547,3.168,1.937,5.378l-3.888,0.491
		c-0.418-2.216-1.296-3.92-2.627-5.102c-1.331-1.183-3.038-1.77-5.121-1.77c-2.167,0-4.194,0.632-6.076,1.889
		c-1.881,1.257-3.38,3.154-4.508,5.69c-1.122,2.536-1.686,5.415-1.686,8.643c0,3.213,0.746,5.645,2.23,7.289
		c1.491,1.644,3.54,2.462,6.16,2.462c2.606,0,5.414-0.915,8.41-2.744l1.345-6.85H378.205L378.205,132.394z M408.247,134.67
		l3.93-0.402l-0.042,1.116c0,1.235,0.265,2.365,0.794,3.392c0.53,1.019,1.408,1.815,2.627,2.373c1.226,0.558,2.676,0.84,4.362,0.84
		c2.39,0,4.209-0.558,5.47-1.681c1.254-1.123,1.881-2.402,1.881-3.845c0-1.004-0.334-1.926-0.996-2.752
		c-0.683-0.818-2.536-1.919-5.567-3.317c-2.348-1.086-3.951-1.919-4.808-2.499c-1.345-0.945-2.334-1.971-2.975-3.087
		c-0.634-1.108-0.955-2.373-0.955-3.801c0-1.636,0.425-3.124,1.268-4.44c0.843-1.324,2.076-2.336,3.7-3.027
		c1.624-0.699,3.456-1.049,5.498-1.049c2.439,0,4.494,0.431,6.166,1.302c1.672,0.87,2.885,2.031,3.637,3.481
		c0.759,1.45,1.136,2.841,1.136,4.158c0,0.134,0,0.349,0,0.654l-3.888,0.327c0-0.907-0.077-1.607-0.223-2.12
		c-0.272-0.885-0.69-1.636-1.261-2.246c-0.571-0.61-1.352-1.101-2.348-1.473c-0.996-0.372-2.111-0.558-3.352-0.558
		c-2.167,0-3.853,0.521-5.059,1.569c-0.927,0.803-1.387,1.867-1.387,3.191c0,0.788,0.188,1.495,0.572,2.112
		c0.376,0.617,1.066,1.227,2.055,1.822c0.704,0.424,2.383,1.257,5.023,2.507c2.146,1.012,3.623,1.815,4.439,2.395
		c1.087,0.774,1.923,1.703,2.501,2.797c0.585,1.101,0.878,2.343,0.878,3.741c0,1.726-0.495,3.317-1.477,4.775
		c-0.989,1.465-2.355,2.596-4.09,3.392c-1.742,0.796-3.735,1.197-5.978,1.197c-3.393,0-6.153-0.788-8.299-2.358
		C409.341,141.587,408.26,138.753,408.247,134.67L408.247,134.67z M444.971,144.978l2.425-12.339l-9.239-19.613h4.313l4.431,9.297
		c0.975,2.031,1.916,4.202,2.836,6.515c0.975-1.941,2.355-4.069,4.118-6.389l6.989-9.424h4.78l-14.326,19.941l-2.355,12.012H444.971
		L444.971,144.978z M464.219,134.67c0.014,4.083,1.094,6.917,3.233,8.486c2.146,1.57,4.905,2.358,8.299,2.358
		c2.243,0,4.236-0.402,5.978-1.197c1.735-0.796,3.101-1.926,4.09-3.392c0.982-1.458,1.477-3.049,1.477-4.775
		c0-1.398-0.293-2.64-0.878-3.741c-0.578-1.093-1.414-2.023-2.501-2.797c-0.815-0.58-2.293-1.383-4.439-2.395
		c-2.641-1.25-4.32-2.083-5.024-2.507c-0.989-0.595-1.679-1.205-2.056-1.822c-0.383-0.617-0.571-1.324-0.571-2.112
		c0-1.324,0.46-2.388,1.387-3.191c1.206-1.048,2.892-1.569,5.059-1.569c1.24,0,2.355,0.186,3.352,0.558
		c0.997,0.372,1.777,0.863,2.348,1.473c0.571,0.61,0.989,1.361,1.261,2.246c0.146,0.513,0.223,1.212,0.223,2.12l3.888-0.327
		c0-0.305,0-0.521,0-0.654c0-1.316-0.376-2.707-1.136-4.158c-0.752-1.45-1.965-2.611-3.637-3.481
		c-1.672-0.87-3.728-1.302-6.167-1.302c-2.042,0-3.874,0.349-5.498,1.049c-1.623,0.692-2.857,1.703-3.7,3.027
		c-0.843,1.316-1.268,2.804-1.268,4.44c0,1.428,0.321,2.692,0.955,3.801c0.641,1.116,1.63,2.142,2.975,3.087
		c0.857,0.58,2.46,1.413,4.808,2.499c3.031,1.398,4.885,2.499,5.567,3.317c0.662,0.826,0.996,1.748,0.996,2.752
		c0,1.443-0.627,2.722-1.881,3.845c-1.261,1.123-3.08,1.681-5.47,1.681c-1.686,0-3.136-0.283-4.362-0.84
		c-1.219-0.558-2.097-1.354-2.627-2.373c-0.529-1.026-0.794-2.157-0.794-3.392l0.042-1.116L464.219,134.67L464.219,134.67z
		 M498.979,144.978l5.567-28.338h-10.061l0.718-3.615h23.767l-0.718,3.615h-9.734l-5.567,28.338H498.979L498.979,144.978z
		 M516.716,144.978h22.91l0.717-3.615h-18.945l2.181-11.112h17.385l0.711-3.615h-17.392l1.965-9.996h17.775l0.704-3.615h-21.74
		L516.716,144.978L516.716,144.978z M545.022,144.978l6.25-31.953h4.989l2.773,20.692c0.362,2.752,0.592,5.363,0.697,7.825
		c0.829-2.097,2.216-5.006,4.167-8.702l10.473-19.814h5.017l-6.327,31.953h-3.944l3.177-15.537
		c0.725-3.585,1.756-7.616,3.094-12.086c-0.899,2.06-1.972,4.299-3.205,6.709l-11.114,20.915h-3.853l-2.752-20.521
		c-0.258-1.874-0.439-4.046-0.543-6.523c-0.356,2.841-0.697,5.087-1.031,6.724l-3.965,20.32H545.022L545.022,144.978z
		 M580.757,134.67l3.93-0.402l-0.042,1.116c0,1.235,0.265,2.365,0.794,3.392c0.53,1.019,1.408,1.815,2.627,2.373
		c1.226,0.558,2.676,0.84,4.362,0.84c2.39,0,4.209-0.558,5.47-1.681c1.254-1.123,1.881-2.402,1.881-3.845
		c0-1.004-0.334-1.926-0.996-2.752c-0.683-0.818-2.536-1.919-5.567-3.317c-2.348-1.086-3.951-1.919-4.808-2.499
		c-1.345-0.945-2.334-1.971-2.975-3.087c-0.634-1.108-0.954-2.373-0.954-3.801c0-1.636,0.425-3.124,1.268-4.44
		c0.843-1.324,2.076-2.336,3.7-3.027c1.624-0.699,3.456-1.049,5.497-1.049c2.439,0,4.494,0.431,6.167,1.302
		c1.672,0.87,2.885,2.031,3.637,3.481c0.759,1.45,1.136,2.841,1.136,4.158c0,0.134,0,0.349,0,0.654l-3.888,0.327
		c0-0.907-0.077-1.607-0.223-2.12c-0.272-0.885-0.69-1.636-1.261-2.246c-0.571-0.61-1.352-1.101-2.348-1.473
		c-0.996-0.372-2.111-0.558-3.352-0.558c-2.167,0-3.853,0.521-5.059,1.569c-0.927,0.803-1.386,1.867-1.386,3.191
		c0,0.788,0.188,1.495,0.571,2.112c0.376,0.617,1.066,1.227,2.056,1.822c0.704,0.424,2.383,1.257,5.024,2.507
		c2.146,1.012,3.623,1.815,4.438,2.395c1.087,0.774,1.923,1.703,2.501,2.797c0.585,1.101,0.878,2.343,0.878,3.741
		c0,1.726-0.495,3.317-1.477,4.775c-0.989,1.465-2.355,2.596-4.09,3.392c-1.742,0.796-3.735,1.197-5.978,1.197
		c-3.393,0-6.153-0.788-8.299-2.358C581.851,141.587,580.771,138.753,580.757,134.67L580.757,134.67z M72.231,135.384l0.794-3.927
		h11.246l-0.752,3.927H72.231z"/>
	<g>
		<path class="st1" d="M158.062,0c14.615,0,27.853,5.827,37.438,15.249c9.586,9.422,15.516,22.438,15.516,36.813
			c0,14.375-5.93,27.391-15.516,36.813c-9.585,9.421-22.822,15.249-37.438,15.249c-14.616,0-27.853-5.828-37.438-15.249
			c-9.587-9.422-15.516-22.438-15.516-36.813c0-14.375,5.93-27.39,15.516-36.813C130.209,5.827,143.446,0,158.062,0L158.062,0z
			 M193.156,17.585c-8.977-8.823-21.384-14.28-35.094-14.28c-13.71,0-26.118,5.457-35.094,14.28
			c-8.975,8.822-14.527,21.011-14.527,34.476c0,13.466,5.552,25.655,14.527,34.477c8.976,8.822,21.384,14.28,35.094,14.28
			s26.118-5.458,35.094-14.28c8.975-8.822,14.527-21.011,14.527-34.477C207.683,38.596,202.131,26.407,193.156,17.585z"/>
		<path class="st2" d="M192.512,47.752c0.334,2.663,0.461,5.949,0.087,7.917c-0.609,3.202-1.153,6.701-2.928,10.115
			c-2.219,4.44-4.879,8.856-9.405,12.31c-3.175,2.492-6.476,4.672-10.652,5.983c-8.106,2.542-13.984,2.82-21.694,0.469
			c-5.545-1.691-12.332-5.353-16.036-9.708c-3.437-4.04-5.844-8.675-7.434-13.759c-0.946-0.821-1.707-13.573-0.842-14.382
			c-0.083-0.001,0.636,0.045,0.559,0.039c-2.307-0.049-11.271,0.098-13.064,0.197c-0.504,0.482-0.489,8.459-0.045,10.031
			c0.647,2.283,5.686-0.043,6.935,1.332c0.418,2.085,2.039,7.329,2.109,8.752c-1.944,0.961-3.422,2.393-5.248,3.407
			c0.009,1.557,1.651,3.887,2.358,5.173c0.826,1.499,1.795,3.288,3.086,4.471c1.49-0.271,4.436-2.685,6.131-2.624
			c0.476,0.168,4.778,5.025,6.179,6.047c-0.437,1.738-2.634,4.671-2.665,6.157c0.777,1.067,7.877,5.219,9.465,5.363l3.762-5.402
			c2.029,0.416,6.554,1.756,8.705,2.389l0.421,6.475c0.974,0.417,9.656,1.027,11.224-0.081l0.21-6.402
			c2.748-0.379,7.565-2.276,8.914-2.36c1.341,1.462,2.715,3.794,3.738,5.407c2.192-0.383,7.908-3.805,9.438-5.389
			c-0.06-1.716-2.324-4.321-2.618-6.079c0.134-0.578,4.56-4.465,5.272-5.371c1.068-1.358,2.019-0.611,3.211,0.055
			c0.801,0.448,2.993,1.537,3.831,1.707c1.183-0.771,5.286-7.908,5.399-9.253c-0.646-0.686-2.037-1.567-2.73-1.975
			c-1.027-0.603-1.837-1.138-2.75-1.767c-0.004-0.372,2.403-8.659,2.439-8.695c1.409-1.319,5.982,1.034,6.628-1.176
			c0.614-2.103,0.484-6.549,0.175-8.679l-0.22-0.832h-10.425C193.447,47.732,198.751,47.359,192.512,47.752z"/>
		<path class="st1" d="M158.062,14.844c10.445,0,19.906,4.166,26.759,10.901c6.853,6.736,11.093,16.041,11.093,26.316
			c0,10.276-4.239,19.581-11.093,26.317c-6.852,6.735-16.314,10.901-26.759,10.901c-10.444,0-19.906-4.166-26.758-10.901
			c-6.853-6.736-11.093-16.041-11.093-26.317c0-10.276,4.239-19.581,11.093-26.316C138.155,19.01,147.617,14.844,158.062,14.844
			L158.062,14.844z M182.477,28.082c-6.244-6.137-14.876-9.932-24.415-9.932s-18.172,3.796-24.415,9.932
			c-6.242,6.135-10.104,14.614-10.104,23.98c0,9.366,3.861,17.845,10.104,23.98c6.244,6.136,14.876,9.932,24.415,9.932
			c9.539,0,18.171-3.796,24.415-9.933c6.242-6.135,10.104-14.614,10.104-23.98C192.58,42.696,188.719,34.217,182.477,28.082z"/>
		<polygon class="st1" points="152.146,62.968 162.668,41.155 165.581,41.155 155.059,62.968 		"/>
		<path class="st1" d="M178.312,55.039l4.399,0.663c-0.857,2.363-2.15,4.171-3.869,5.419c-1.714,1.253-3.73,1.876-6.039,1.876
			c-2.596,0-4.627-0.776-6.088-2.334c-1.461-1.557-2.195-3.817-2.195-6.779c0-2.403,0.491-4.599,1.472-6.593
			c0.981-1.995,2.338-3.523,4.082-4.579c1.739-1.056,3.631-1.587,5.677-1.587c2.304,0,4.161,0.614,5.583,1.837
			c1.422,1.228,2.254,2.894,2.507,5.011l-4.191,0.403c-0.233-1.233-0.679-2.122-1.338-2.677c-0.659-0.555-1.535-0.83-2.635-0.83
			c-1.204,0-2.328,0.364-3.373,1.095c-1.045,0.732-1.878,1.877-2.502,3.434c-0.629,1.552-0.941,3.105-0.941,4.657
			c0,1.695,0.406,3.006,1.218,3.93c0.812,0.924,1.828,1.385,3.037,1.385c1.129,0,2.16-0.364,3.096-1.096
			C177.153,57.549,177.851,56.468,178.312,55.039z"/>
		<path class="st1" d="M146.627,54.42l-1.263-8.49l-4.696,8.49H146.627L146.627,54.42z M147.152,57.957h-8.441l-2.576,4.657h-4.538
			l12.013-21.105h4.949l3.438,21.105h-4.152L147.152,57.957z"/>
		<path class="st3" d="M115.641,35.942c7.34-16.462,23.157-27.933,41.478-28.49c0.016,0.176,0.046,0.379,0.046,0.553v2.332
			c0,0.098,0.017,0.173,0.044,0.247v0.366c-16.496,0.503-30.803,10.501-37.882,25.025C118.095,35.921,116.877,35.942,115.641,35.942
			z"/>
		<path class="st4" d="M159.998,7.453c18.292,0.587,34.069,12.053,41.396,28.488h-3.574c-0.042,0-0.083,0.004-0.122,0.012
			c-7.069-14.483-21.328-24.464-37.781-25c0.036-0.717,0.037-1.363,0.037-2.087C160.027,8.4,159.998,7.928,159.998,7.453z"/>
	</g>
	<g>
		<path class="st4" d="M549.814,45.061h11.03c12.832,0,21.699-1.358,26.674-4.039c4.938-2.717,7.425-7.078,7.425-13.12
			c0-6.577-5.478-9.866-16.436-9.866h-22.997L549.814,45.061L549.814,45.061z M537.919,101.469h-20.834L538.207,1.306h44.985
			c21.663,0,32.513,8.758,32.513,26.31c0,18.302-10.345,28.74-31.071,31.314c6.2,5.434,13.914,19.589,23.069,42.539h-22.637
			c-1.477-4.754-4.145-11.725-8.038-20.912c-3.893-9.186-7.137-14.906-9.732-17.123c-2.595-2.252-6.633-3.36-12.148-3.36h-8.507
			L537.919,101.469z"/>
		<path class="st3" d="M488.643,101.47l0.354-1.668l0.256,1.668H488.643L488.643,101.47z M499.866,48.523l10.008-47.216h20.834
			L509.477,101.47h-0.904L499.866,48.523z"/>
		<path class="st4" d="M483.305,62.648l-6.2-40.322l-24.331,40.322H483.305L483.305,62.648z M485.864,79.378h-40.371l-12.219,22.092
			h-21.375L468.886,1.306H492.1l16.473,100.163h-19.321L485.864,79.378z"/>
	</g>
	<path class="st3" d="M71.831,65.748l21.692,3.071c-4.226,10.941-10.602,19.312-19.079,25.09c-8.452,5.8-18.394,8.689-29.778,8.689
		c-12.8,0-22.816-3.594-30.022-10.805C7.438,84.583,3.823,74.119,3.823,60.403c0-11.123,2.418-21.291,7.255-30.526
		c4.837-9.235,11.53-16.309,20.129-21.2c8.574-4.891,17.906-7.347,27.995-7.347c11.359,0,20.52,2.843,27.531,8.507
		c7.011,5.687,11.115,13.398,12.361,23.202l-20.666,1.865c-1.148-5.71-3.347-9.827-6.595-12.397
		c-3.249-2.571-7.573-3.844-12.996-3.844c-5.936,0-11.481,1.683-16.636,5.072c-5.154,3.389-9.258,8.689-12.336,15.9
		c-3.102,7.188-4.641,14.376-4.641,21.564c0,7.848,2.003,13.921,6.009,18.197c4.006,4.276,9.014,6.415,14.975,6.415
		c5.57,0,10.651-1.683,15.267-5.073C66.115,77.372,69.559,72.368,71.831,65.748L71.831,65.748z M218.835,100.824l21.985-97.72
		h21.546l-18.297,81.342h53.474l-3.664,16.378H218.835L218.835,100.824z M304.842,100.824l21.985-97.72h28.361
		c7.89,0,12.947,0.114,15.146,0.341c4.348,0.387,8.257,1.206,11.677,2.457c3.42,1.251,6.522,2.98,9.332,5.232
		c2.809,2.252,5.227,4.936,7.255,8.098c2.028,3.162,3.591,6.801,4.69,10.896c1.099,4.117,1.661,8.621,1.661,13.511
		c0,10.532-2.174,19.858-6.498,28.024c-4.324,8.143-9.771,14.626-16.318,19.426c-5.032,3.731-11.506,6.483-19.445,8.257
		c-4.495,0.978-11.408,1.479-20.739,1.479H304.842L304.842,100.824z M329.93,85.129h11.017c7.963,0,13.728-0.455,17.295-1.365
		c3.591-0.91,6.864-2.616,9.82-5.118c4.275-3.594,7.866-8.394,10.797-14.399c2.931-6.005,4.397-13.079,4.397-21.223
		c0-6.938-1.221-12.147-3.64-15.65c-2.418-3.48-5.399-5.8-8.965-6.96c-2.492-0.796-6.913-1.206-13.313-1.206h-12.58L329.93,85.129z"
		/>
</g>
</svg>
