<?xml version="1.0" encoding="utf-8"?>
<!-- Generator: Adobe Illustrator 21.0.2, SVG Export Plug-In . SVG Version: 6.00 Build 0)  -->
<svg version="1.1" id="Слой_1" xmlns="http://www.w3.org/2000/svg" xmlns:xlink="http://www.w3.org/1999/xlink" x="0px" y="0px"
	 viewBox="0 0 24 17.285" style="enable-background:new 0 0 24 17.285;" xml:space="preserve">
<style type="text/css">
	.st0{fill-rule:evenodd;clip-rule:evenodd;fill:#676767;stroke:#676767;stroke-width:0.216;stroke-miterlimit:22.9256;}
	.st1{fill-rule:evenodd;clip-rule:evenodd;fill:#676767;}
	.st2{fill-rule:evenodd;clip-rule:evenodd;fill:#6BC7E4;}
	.st3{fill-rule:evenodd;clip-rule:evenodd;fill:#00B4EC;}
	.st4{fill-rule:evenodd;clip-rule:evenodd;fill:#DC2A1B;}
	.st5{fill-rule:evenodd;clip-rule:evenodd;fill:#F0F0F0;}
	.st6{fill:#009FE3;}
	.st7{fill:#DADADA;}
	.st8{fill:#00B4EC;}
	.st9{fill:#FFFFFF;}
</style>
<g>
	<path class="st8" d="M6.355,8.095c1.884,1.433,3.764,2.864,5.653,4.301c1.88-1.441,3.759-2.88,5.642-4.322
		c0.038,0.034,0.07,0.06,0.1,0.09c2.045,2.022,4.089,4.045,6.136,6.066c0.081,0.08,0.116,0.159,0.115,0.274
		c-0.005,0.56-0.001,1.12-0.001,1.68c0,0.617-0.417,1.051-1.039,1.059c-0.813,0.011-1.627,0.008-2.44,0.009
		c-4.905,0.007-9.81,0.014-14.715,0.022c-1.546,0.002-3.091,0.006-4.637,0.012c-0.358,0.001-0.669-0.1-0.909-0.377
		c-0.164-0.189-0.234-0.413-0.235-0.661c-0.002-0.589-0.004-1.177-0.001-1.766c0-0.055,0.024-0.125,0.062-0.163
		c2.071-2.064,4.145-4.125,6.218-6.187C6.314,8.123,6.327,8.116,6.355,8.095z"/>
	<path class="st8" d="M23.978,11.971c-1.665-1.646-3.317-3.279-4.982-4.925c1.656-1.268,3.305-2.531,4.982-3.815
		C23.978,6.16,23.978,9.055,23.978,11.971z"/>
	<path class="st8" d="M0.02,11.985c0-2.895,0-5.79,0-8.711C1.688,4.543,3.34,5.8,4.962,7.035c-1.636,1.664-3.265,3.321-4.894,4.977
		C0.052,12.003,0.036,11.994,0.02,11.985z"/>
	<path class="st8" d="M23.945,0.773C23.843,0.298,23.423,0,22.89,0c-1.316,0-2.632,0.003-3.948,0.005
		C13.448,0.013,7.955,0.02,2.462,0.028C1.969,0.029,1.476,0.024,0.983,0.036C0.535,0.047,0.132,0.372,0.036,0.799
		C0.001,0.955,0.019,1.123,0.002,1.284c-0.013,0.125,0.037,0.198,0.135,0.272c3.496,2.657,6.99,5.317,10.484,7.976
		c0.46,0.35,0.92,0.7,1.383,1.052c0.045-0.033,0.083-0.061,0.121-0.09c2.685-2.056,5.37-4.112,8.055-6.168
		c1.23-0.942,2.461-1.884,3.69-2.828c0.042-0.032,0.1-0.083,0.1-0.125C23.973,1.173,23.987,0.966,23.945,0.773z"/>
</g>
</svg>
