<?xml version="1.0" encoding="utf-8"?>
<!-- Generator: Adobe Illustrator 21.0.2, SVG Export Plug-In . SVG Version: 6.00 Build 0)  -->
<svg version="1.1" id="Слой_1" xmlns="http://www.w3.org/2000/svg" xmlns:xlink="http://www.w3.org/1999/xlink" x="0px" y="0px"
	 viewBox="0 0 24 24.674" style="enable-background:new 0 0 24 24.674;" xml:space="preserve">
<style type="text/css">
	.st0{fill-rule:evenodd;clip-rule:evenodd;fill:#676767;stroke:#676767;stroke-width:0.216;stroke-miterlimit:22.9256;}
	.st1{fill-rule:evenodd;clip-rule:evenodd;fill:#676767;}
	.st2{fill-rule:evenodd;clip-rule:evenodd;fill:#6BC7E4;}
	.st3{fill-rule:evenodd;clip-rule:evenodd;fill:#00B4EC;}
	.st4{fill-rule:evenodd;clip-rule:evenodd;fill:#DC2A1B;}
	.st5{fill-rule:evenodd;clip-rule:evenodd;fill:#F0F0F0;}
	.st6{fill:#009FE3;}
	.st7{fill:#DADADA;}
	.st8{fill:#00B4EC;}
	.st9{fill:#FFFFFF;}
</style>
<g>
	<path class="st8" d="M0,8.22c0-2.092,0.702-3.913,2.103-5.47c0.454-0.505,0.924-0.988,1.505-1.346
		c0.425-0.262,0.875-0.452,1.391-0.423c0.412,0.023,0.762,0.194,1.034,0.491c0.973,1.062,1.82,2.211,2.38,3.549
		C8.588,5.44,8.711,5.872,8.746,6.325c0.054,0.709-0.143,1.318-0.713,1.778C7.52,8.516,7.013,8.936,6.497,9.346
		c-0.735,0.584-0.96,1.326-0.661,2.251c0.197,0.607,0.525,1.15,0.868,1.683c0.992,1.542,2.202,2.891,3.6,4.076
		c0.337,0.286,0.656,0.593,1.051,0.803c0.458,0.243,0.934,0.405,1.465,0.336c0.462-0.06,0.845-0.275,1.166-0.602
		c0.232-0.236,0.437-0.499,0.673-0.731c0.479-0.472,1.029-0.834,1.694-0.993c0.663-0.16,1.297-0.057,1.854,0.322
		c1.087,0.739,2.126,1.542,3.05,2.485c0.342,0.349,0.619,0.732,0.722,1.221c0.102,0.482-0.011,0.911-0.317,1.289
		c-0.916,1.129-2.037,1.993-3.372,2.573c-1.115,0.485-2.283,0.69-3.494,0.594c-0.847-0.067-1.661-0.301-2.458-0.588
		c-1.889-0.681-3.572-1.712-5.011-3.107c-1.807-1.751-3.452-3.649-4.921-5.696c-0.502-0.699-0.844-1.48-1.22-2.247
		c-0.462-0.944-0.807-1.924-1.006-2.956C0.063,9.45,0.001,8.838,0,8.22z"/>
	<g>
		<path class="st8" d="M21.734,10.697c0.099-1.604-0.322-2.965-0.982-4.251c-0.446-0.87-1.094-1.606-1.867-2.212
			c-0.999-0.782-2.115-1.341-3.349-1.646c-0.438-0.108-0.89-0.156-1.333-0.245c-0.511-0.102-0.796-0.45-0.946-0.925
			c-0.203-0.639,0.423-1.571,1.364-1.396c1.271,0.237,2.51,0.582,3.665,1.177c0.762,0.393,1.461,0.881,2.091,1.464
			c0.606,0.561,1.158,1.172,1.647,1.836c0.765,1.039,1.318,2.181,1.628,3.438c0.19,0.767,0.357,1.537,0.348,2.333
			c-0.007,0.57-0.106,1.123-0.316,1.655c-0.078,0.198-0.207,0.339-0.4,0.423c-0.309,0.134-0.632,0.165-0.95,0.068
			c-0.361-0.11-0.505-0.42-0.549-0.757C21.737,11.299,21.744,10.932,21.734,10.697z"/>
		<path class="st8" d="M19.483,11.236c-0.038,0.261-0.049,0.53-0.119,0.782c-0.148,0.53-0.618,0.889-1.081,0.793
			c-0.569-0.118-0.802-0.275-0.894-0.808c-0.072-0.415-0.067-0.843-0.098-1.265c-0.083-1.116-0.531-2.063-1.326-2.846
			c-0.73-0.718-1.612-1.105-2.628-1.196c-0.122-0.011-0.246-0.03-0.365-0.062c-0.506-0.134-0.816-0.557-0.787-1.065
			c0.026-0.463,0.427-0.912,0.917-0.949c0.335-0.025,0.688-0.01,1.012,0.072c1.035,0.262,2.006,0.676,2.853,1.344
			c0.943,0.744,1.559,1.72,1.98,2.829c0.223,0.589,0.42,1.188,0.479,1.821c0.017,0.182,0.025,0.364,0.037,0.547
			C19.462,11.232,19.476,11.235,19.483,11.236z"/>
	</g>
</g>
</svg>
