<?xml version="1.0" encoding="utf-8"?>
<!-- Generator: Adobe Illustrator 21.0.2, SVG Export Plug-In . SVG Version: 6.00 Build 0)  -->
<svg version="1.1" id="Слой_1" xmlns="http://www.w3.org/2000/svg" xmlns:xlink="http://www.w3.org/1999/xlink" x="0px" y="0px"
	 viewBox="0 0 214.364 76.036" style="enable-background:new 0 0 214.364 76.036;" xml:space="preserve">
<style type="text/css">
	.st0{fill:#FFFFFF;}
	.st1{fill:#4D887B;}
	.st2{fill:none;stroke:#FFFFFF;stroke-width:0.9488;stroke-miterlimit:22.9256;}
</style>
<g>
	<path class="st0" d="M16.593,16.866l6.204-15.899h78.93l-4.496,11.006c-0.43-0.002-0.86-0.003-1.293-0.002
		c-30.606,0.064-52.826,11.19-55.551,27.559c-1.493,9.885,2.236,18.451,11.769,24.005l-2.749,7.793H20.091l20.984-54.426
		L16.593,16.866z"/>
	<path class="st1" d="M117.287,13.145l-3.608,12.403c-15.423-1.142-32.145-0.981-40.969,5.824h-11.5l-1.847,5.929h5.832
		l-4.514,14.661l7.141,0.033l0.421-1.363c2.948,3.36,9.469,6.127,18.212,6.356c0.318-1.178,0.695-2.29,1.076-3.478
		c-0.825-0.02-2.847-0.002-4.15-0.023c0.146-0.46,0.398-1.281,0.54-1.776c0.826,0.008,7.357-0.008,8.26-0.023
		c0.141-0.396,0.248-0.749,0.529-1.651c0.14,0,0.128,0,0.27,0c-0.171,0.544-0.343,1.064-0.47,1.485
		c2.464,0.427,4.339,0.404,6.443-0.106c0.913-0.222,1.645-0.577,2.449-1.378c0.947,0,1.775,0,2.682,0l-5.966,19.486
		C55.121,73.658,37.417,59.202,40.387,39.53c2.725-16.369,24.946-27.495,55.551-27.559C103.651,11.952,111.051,12.44,117.287,13.145
		z"/>
	<path class="st1" d="M158.515,14.239l-0.145,0.353c-0.138,0.335-0.242,0.61-0.313,0.824c-0.07,0.213-0.127,0.411-0.167,0.596
		c-0.718-0.208-1.381-0.365-1.986-0.47c-0.605-0.107-1.158-0.159-1.66-0.159c-1.158,0-2.139,0.211-2.946,0.633
		c-0.806,0.421-1.368,1.013-1.683,1.777c-0.308,0.748-0.236,1.326,0.217,1.734c0.456,0.408,1.25,0.612,2.386,0.612
		c0.291,0,0.603-0.016,0.938-0.046c0.337-0.032,0.691-0.08,1.059-0.144l0.439-1.065h-1.716l0.581-1.41h4.322l-1.489,3.61
		c-0.829,0.208-1.689,0.366-2.58,0.473c-0.892,0.109-1.782,0.164-2.671,0.164c-2.018,0-3.42-0.343-4.205-1.029
		c-0.783-0.684-0.909-1.675-0.374-2.972c0.515-1.25,1.455-2.212,2.817-2.887c1.364-0.675,3.046-1.012,5.053-1.012
		c0.696,0,1.385,0.035,2.067,0.105C157.145,13.994,157.83,14.099,158.515,14.239L158.515,14.239z M164.697,15.299l-0.871,2.112
		h1.406c0.642,0,1.143-0.084,1.506-0.254c0.362-0.169,0.62-0.437,0.77-0.802c0.155-0.375,0.119-0.645-0.105-0.81
		c-0.225-0.164-0.685-0.246-1.379-0.246L164.697,15.299L164.697,15.299z M162.181,14.038h4.982c0.897,0,1.565,0.033,2.004,0.1
		s0.789,0.178,1.05,0.332c0.327,0.191,0.537,0.435,0.626,0.738c0.092,0.302,0.059,0.643-0.097,1.021
		c-0.239,0.58-0.686,1.035-1.338,1.367c-0.655,0.332-1.465,0.514-2.434,0.549c0.947,0.056,1.663,0.796,2.14,2.218
		c0.161,0.484,0.298,0.862,0.41,1.135h-3.518c-0.236-1.291-0.484-2.077-0.739-2.358c-0.255-0.283-0.665-0.424-1.233-0.424h-0.745
		l-1.147,2.782h-3.036L162.181,14.038L162.181,14.038z M178.97,15.63c-0.831,0-1.558,0.189-2.182,0.567
		c-0.625,0.379-1.075,0.905-1.352,1.577c-0.28,0.68-0.264,1.207,0.05,1.583c0.314,0.375,0.886,0.562,1.717,0.562
		c0.826,0,1.55-0.187,2.169-0.562c0.619-0.376,1.069-0.903,1.349-1.583c0.278-0.675,0.263-1.202-0.046-1.578
		C180.365,15.819,179.796,15.63,178.97,15.63L178.97,15.63z M179.716,13.82c1.77,0,3.024,0.357,3.764,1.07
		c0.739,0.713,0.859,1.676,0.361,2.884c-0.502,1.216-1.415,2.179-2.74,2.885c-1.325,0.707-2.872,1.061-4.642,1.061
		c-1.778,0-3.037-0.354-3.781-1.062c-0.743-0.71-0.866-1.671-0.365-2.884c0.499-1.211,1.415-2.174,2.747-2.887
		C176.391,14.175,177.944,13.82,179.716,13.82L179.716,13.82z M187.912,14.038h3.109l-1.776,4.308
		c-0.225,0.546-0.225,0.945,0.003,1.196c0.226,0.251,0.694,0.376,1.404,0.376c0.707,0,1.279-0.125,1.711-0.376
		c0.435-0.251,0.763-0.65,0.989-1.196l1.776-4.308h2.961l-1.791,4.345c-0.491,1.191-1.244,2.045-2.257,2.561
		c-1.015,0.516-2.432,0.775-4.254,0.775c-1.777,0-2.956-0.254-3.539-0.764c-0.581-0.508-0.639-1.329-0.171-2.464L187.912,14.038
		L187.912,14.038z M203.801,15.328l-0.863,2.093h1.077c0.747,0,1.297-0.082,1.65-0.249c0.352-0.165,0.611-0.449,0.777-0.853
		c0.15-0.364,0.12-0.619-0.09-0.767c-0.209-0.149-0.678-0.224-1.403-0.224L203.801,15.328L203.801,15.328z M201.251,14.038h5.147
		c1.316,0,2.22,0.199,2.715,0.594c0.495,0.395,0.579,0.988,0.253,1.778c-0.324,0.786-0.899,1.362-1.728,1.734
		c-0.826,0.37-1.964,0.556-3.405,0.556h-1.822l-1.154,2.8h-3.082L201.251,14.038z"/>
	<rect y="73.735" class="st1" width="188.517" height="2.302"/>
	<path class="st0" d="M61.618,32.005H79.29l-1.465,4.741h-5.932l-4.467,14.452h-5.813l4.467-14.452h-5.927L61.618,32.005
		L61.618,32.005z M81.91,32.005l-5.933,19.194H91.84l1.344-4.348H83.147l1.169-3.781h9.046l1.21-3.915h-9.046l0.943-3.052h9.751
		l1.267-4.098L81.91,32.005L81.91,32.005z M112.258,51.199h-5.813l4.476-14.479h-4.547l-1.825,5.903
		c-0.75,2.427-1.424,4.21-2.03,5.349c-0.606,1.14-1.452,1.975-2.545,2.507c-1.093,0.532-2.674,0.8-4.746,0.8
		c-0.635,0-1.34-0.072-2.117-0.21l1.202-3.888h0.872c0.789,0,1.4-0.179,1.833-0.532s0.796-1.001,1.087-1.944l3.926-12.7h16.161
		L112.258,51.199L112.258,51.199z M122.028,32.005l-5.933,19.194h15.863l1.344-4.348h-10.036l1.169-3.781h9.046l1.21-3.915h-9.046
		l0.943-3.052h9.752l1.267-4.098L122.028,32.005L122.028,32.005z M152.197,51.199h-6.545l-0.727-4.96
		c-0.177-1.171-0.371-1.904-0.579-2.194c-0.211-0.295-0.579-0.438-1.109-0.438L140.89,51.2h-5.804l5.933-19.194h5.804l-2.278,7.369
		c0.511-0.022,0.962-0.205,1.348-0.549c0.39-0.34,1.129-1.314,2.229-2.932c0.807-1.193,1.51-2.051,2.117-2.569
		c0.604-0.523,1.442-0.894,2.515-1.122c1.069-0.228,2.677-0.34,4.814-0.34l-1.254,4.058h-0.294c-0.994,0-1.79,0.192-2.386,0.576
		c-0.601,0.384-1.183,1.005-1.759,1.864c-0.573,0.862-1.104,1.501-1.59,1.926s-1.077,0.764-1.768,1.015
		c0.75,0.282,1.332,0.764,1.747,1.448c0.411,0.684,0.746,1.752,1,3.2L152.197,51.199L152.197,51.199z M156.505,41.613
		c-0.693,2.243-0.837,4.111-0.435,5.604c0.406,1.493,1.195,2.583,2.369,3.276c1.18,0.688,2.831,1.032,4.951,1.032
		c2.09,0,3.952-0.398,5.601-1.198c1.645-0.8,3.059-1.917,4.243-3.352c1.184-1.435,2.125-3.276,2.819-5.519
		c0.955-3.088,0.848-5.492-0.314-7.204c-1.165-1.716-3.313-2.574-6.446-2.574c-3.053,0-5.706,0.871-7.959,2.619
		C159.086,36.04,157.473,38.48,156.505,41.613L156.505,41.613z M162.314,41.64c0.604-1.953,1.392-3.356,2.363-4.201
		c0.972-0.849,2.044-1.269,3.214-1.269c1.227,0,2.066,0.416,2.523,1.247c0.456,0.836,0.408,2.154-0.152,3.964
		c-0.663,2.145-1.469,3.633-2.409,4.465c-0.939,0.827-2.036,1.242-3.284,1.242c-1.213,0-2.046-0.425-2.49-1.269
		C161.636,44.969,161.715,43.579,162.314,41.64L162.314,41.64z M182.04,32.005h7.649l-0.657,11.677l6.549-11.677h7.623
		l-5.933,19.194h-4.749l4.524-14.636l-8.208,14.636h-4.298l0.853-14.636l-4.524,14.636h-4.762L182.04,32.005z"/>
	<path class="st0" d="M125.174,12.595l2.779-9.737h-4.412l0.759-2.662h12.09l-0.761,2.662h-4.431l-2.779,9.737H125.174
		L125.174,12.595z M133.232,12.595h11.469l0.759-2.662h-8.223l0.684-2.4h7.409l0.757-2.654h-7.409l0.577-2.022h7.911l0.759-2.662
		H136.77L133.232,12.595L133.232,12.595z M145.602,12.595l3.539-12.399h3.246l-2.779,9.737h6.595l-0.759,2.662H145.602
		L145.602,12.595z M156.117,12.595h11.469l0.759-2.662h-8.223l0.685-2.4h7.409l0.758-2.654h-7.41l0.577-2.022h7.911l0.759-2.662
		h-11.157L156.117,12.595L156.117,12.595z M179.76,7.283l3.193,0.703l-0.827,1.293l-0.319,0.439l-0.341,0.41l-0.364,0.384
		l-0.389,0.355l-0.407,0.327l-0.43,0.298l-0.451,0.27L178.954,12l-0.483,0.208l-0.495,0.174l-0.509,0.145l-0.522,0.111l-0.532,0.081
		l-0.544,0.047l-0.555,0.016l-0.559-0.013l-0.528-0.036l-0.502-0.062l-0.476-0.087l-0.453-0.116l-0.426-0.145l-0.403-0.177
		l-0.372-0.21l-0.34-0.238l-0.311-0.265l-0.282-0.294l-0.248-0.32l-0.213-0.343l-0.179-0.363l-0.143-0.383l-0.106-0.393l-0.077-0.4
		l-0.048-0.402l-0.022-0.406l0.006-0.408l0.031-0.414l0.059-0.418l0.084-0.42l0.109-0.422l0.142-0.455l0.166-0.441l0.188-0.427
		l0.212-0.411l0.233-0.398l0.258-0.383l0.28-0.368l0.302-0.351l0.32-0.335l0.339-0.314l0.356-0.294l0.372-0.272l0.388-0.252
		l0.407-0.231l0.423-0.21l0.437-0.187l0.442-0.166l0.449-0.145l0.453-0.122l0.457-0.099L177,0.108l0.466-0.056l0.47-0.033
		l0.475-0.011l0.525,0.013l0.506,0.043l0.482,0.073l0.461,0.105l0.44,0.136l0.419,0.173l0.394,0.208l0.369,0.247l0.334,0.278
		l0.298,0.31l0.259,0.339l0.218,0.367l0.173,0.386l0.131,0.404l0.089,0.42l0.111,0.96l-3.148,0.58l-0.155-1.072l-0.046-0.215
		l-0.058-0.185l-0.065-0.155l-0.073-0.132l-0.078-0.109l-0.086-0.093l-0.099-0.085l-0.118-0.08l-0.137-0.073l-0.161-0.066
		l-0.186-0.058l-0.214-0.048l-0.238-0.035l-0.263-0.022l-0.289-0.007l-0.347,0.008l-0.336,0.026l-0.324,0.042l-0.313,0.06
		l-0.305,0.076l-0.292,0.094l-0.284,0.11L175.73,3.16l-0.268,0.143l-0.251,0.154l-0.235,0.165l-0.22,0.177l-0.208,0.187
		l-0.191,0.198l-0.177,0.21l-0.167,0.226l-0.16,0.238L173.705,5.1l-0.136,0.241l-0.123,0.244l-0.113,0.243l-0.1,0.245l-0.089,0.245
		l-0.075,0.249l-0.086,0.321l-0.065,0.306l-0.048,0.292l-0.031,0.28l-0.015,0.263l0.002,0.245l0.018,0.232l0.033,0.216l0.045,0.19
		l0.056,0.163l0.066,0.141l0.079,0.128l0.09,0.115l0.105,0.105l0.123,0.098l0.146,0.095l0.173,0.09l0.191,0.084l0.199,0.071
		l0.21,0.059l0.224,0.046l0.238,0.035l0.25,0.021l0.263,0.007l0.327-0.011l0.319-0.029l0.311-0.05l0.304-0.067l0.296-0.089
		l0.293-0.107l0.286-0.128l0.279-0.146l0.264-0.167l0.255-0.185l0.241-0.205l0.229-0.223l0.215-0.246l0.205-0.266l0.194-0.287
		L179.76,7.283L179.76,7.283z M183.337,6.271l-0.102,0.399l-0.074,0.397l-0.046,0.395L183.1,7.855l0.011,0.391l0.042,0.391
		l0.071,0.385l0.101,0.385l0.134,0.38l0.173,0.371l0.208,0.35l0.243,0.332l0.275,0.307l0.306,0.283L185,11.688l0.363,0.234
		l0.383,0.205l0.403,0.177l0.418,0.149l0.438,0.121l0.452,0.091l0.467,0.064l0.484,0.039l0.502,0.013l0.468-0.012l0.466-0.033
		l0.463-0.058l0.463-0.079l0.459-0.102l0.456-0.124l0.453-0.148l0.453-0.169l0.445-0.194l0.432-0.215l0.414-0.237l0.399-0.258
		l0.38-0.28l0.364-0.302l0.346-0.323l0.33-0.344l0.308-0.361l0.286-0.372l0.261-0.386l0.239-0.397l0.214-0.411l0.19-0.423
		l0.165-0.434l0.143-0.446l0.112-0.443l0.085-0.435l0.054-0.428l0.026-0.421l-0.008-0.417l-0.037-0.408l-0.072-0.401l-0.103-0.392
		l-0.141-0.386l-0.176-0.369l-0.212-0.35l-0.246-0.328l-0.28-0.306L196.2,1.31l-0.338-0.253l-0.363-0.228l-0.388-0.2l-0.4-0.171
		l-0.418-0.144l-0.43-0.115l-0.448-0.09l-0.46-0.063l-0.476-0.037L191.985,0l-0.744,0.025l-0.727,0.078l-0.71,0.13l-0.687,0.183
		l-0.668,0.234l-0.647,0.286l-0.626,0.337l-0.604,0.389l-0.573,0.435l-0.527,0.477l-0.479,0.518l-0.429,0.559l-0.382,0.598
		l-0.331,0.637l-0.282,0.676L183.337,6.271L183.337,6.271z M186.482,6.824l0.178-0.562l0.207-0.515l0.231-0.47l0.257-0.424
		l0.278-0.381l0.304-0.335l0.326-0.295l0.357-0.256L189,3.358l0.391-0.198l0.393-0.167l0.399-0.135l0.402-0.105l0.408-0.074
		l0.412-0.045l0.424-0.015l0.284,0.007l0.271,0.023l0.253,0.036l0.237,0.051l0.22,0.062l0.205,0.075l0.188,0.086l0.177,0.098
		l0.156,0.105l0.135,0.109l0.119,0.118l0.105,0.126l0.09,0.134l0.079,0.146l0.068,0.162l0.057,0.179l0.041,0.194l0.029,0.213
		l0.012,0.228l-0.003,0.243l-0.023,0.257l-0.04,0.275l-0.06,0.289l-0.077,0.3l-0.156,0.478l-0.182,0.446l-0.211,0.414l-0.237,0.387
		l-0.265,0.356l-0.294,0.329l-0.322,0.302l-0.352,0.277l-0.376,0.246l-0.387,0.215l-0.394,0.181l-0.401,0.147l-0.412,0.113
		l-0.422,0.081l-0.433,0.049l-0.442,0.016l-0.422-0.016l-0.382-0.046l-0.344-0.075l-0.302-0.099l-0.268-0.123l-0.235-0.145
		L186.909,9.5l-0.183-0.19l-0.152-0.206l-0.116-0.222l-0.087-0.249l-0.055-0.285l-0.022-0.325l0.019-0.361l0.061-0.4L186.482,6.824
		L186.482,6.824z M209.372,6.536l-4.28,6.059h-2.603l-0.841-6.64l-1.895,6.64h-3.184l3.538-12.399h3.811l0.98,8.167l0.173-0.244
		l5.567-7.923h3.726l-3.538,12.399h-3.183L209.372,6.536z"/>
	<g>
		<ellipse class="st2" cx="198.884" cy="70.834" rx="3.968" ry="3.864"/>
		<path class="st0" d="M196.583,73.445v-5.221h2.314c0.466,0,0.819,0.048,1.061,0.141s0.435,0.259,0.58,0.496
			c0.144,0.238,0.217,0.501,0.217,0.788c0,0.371-0.12,0.683-0.36,0.937s-0.61,0.414-1.111,0.484c0.182,0.088,0.322,0.175,0.417,0.26
			c0.202,0.185,0.393,0.417,0.574,0.694l0.908,1.421h-0.869l-0.692-1.085c-0.202-0.314-0.367-0.553-0.498-0.72
			c-0.13-0.167-0.247-0.283-0.35-0.349c-0.103-0.067-0.209-0.113-0.316-0.14c-0.078-0.016-0.205-0.024-0.384-0.024h-0.801v2.318
			H196.583L196.583,73.445z M197.274,70.527h1.485c0.315,0,0.562-0.033,0.74-0.098c0.178-0.064,0.314-0.169,0.406-0.312
			c0.092-0.144,0.139-0.3,0.139-0.468c0-0.247-0.09-0.45-0.269-0.609c-0.18-0.159-0.462-0.238-0.85-0.238h-1.652L197.274,70.527
			L197.274,70.527z"/>
	</g>
	<path class="st1" d="M189.377,61.962c-0.175,0.399-0.458,0.72-0.848,0.966c-0.389,0.245-0.808,0.367-1.255,0.367
		c-0.445,0-0.796-0.122-1.056-0.371c-0.259-0.245-0.367-0.566-0.324-0.962h0.841c0.028,0.396,0.266,0.594,0.719,0.594
		c0.483,0,0.843-0.198,1.082-0.594H189.377z"/>
	<polygon class="st1" points="190.519,63.674 188.643,70.625 186.585,70.625 187.615,66.809 183.932,70.625 181.869,70.625 
		183.746,63.674 185.808,63.674 184.77,67.519 188.476,63.674 	"/>
	<polygon class="st1" points="182.278,63.674 180.402,70.625 178.344,70.625 179.374,66.809 175.691,70.625 173.629,70.625 
		175.504,63.674 177.567,63.674 176.53,67.519 180.235,63.674 	"/>
	<polygon class="st1" points="167.269,63.674 169.457,63.674 168.8,66.106 171.193,66.106 171.849,63.674 174.047,63.674 
		172.171,70.625 169.973,70.625 170.732,67.814 168.339,67.814 167.581,70.625 165.393,70.625 	"/>
	<polygon class="st1" points="156.23,70.625 154.047,70.625 155.462,65.381 153.057,65.381 151.641,70.625 149.457,70.625 
		151.332,63.674 158.106,63.674 	"/>
	<polygon class="st1" points="141.962,63.674 144.841,63.674 144.811,67.903 147.059,63.674 149.927,63.674 148.052,70.625 
		146.264,70.625 147.695,65.325 144.878,70.625 143.26,70.625 143.309,65.325 141.879,70.625 140.087,70.625 	"/>
	<path class="st1" d="M131.087,70.625h-2.464l-0.366-1.796c-0.089-0.424-0.175-0.689-0.259-0.795
		c-0.085-0.107-0.226-0.158-0.425-0.158l-0.742,2.749h-2.185l1.876-6.951h2.185l-0.72,2.668c0.192-0.008,0.358-0.075,0.497-0.199
		c0.141-0.123,0.401-0.476,0.785-1.062c0.281-0.432,0.531-0.742,0.749-0.93c0.218-0.19,0.526-0.324,0.926-0.406
		c0.398-0.083,1.001-0.123,1.805-0.123l-0.397,1.47h-0.11c-0.374,0-0.67,0.07-0.887,0.209c-0.219,0.139-0.427,0.364-0.627,0.674
		c-0.2,0.313-0.387,0.544-0.563,0.698c-0.175,0.154-0.391,0.277-0.646,0.367c0.287,0.103,0.515,0.277,0.684,0.524
		c0.167,0.248,0.313,0.635,0.436,1.159L131.087,70.625z"/>
	<polygon class="st1" points="183.401,60.555 181.217,60.555 182.633,55.312 180.227,55.312 178.811,60.555 176.627,60.555 
		178.503,53.604 185.276,53.604 	"/>
	<polygon class="st1" points="175.159,60.555 172.976,60.555 174.391,55.312 171.986,55.312 170.57,60.555 168.386,60.555 
		170.262,53.604 177.035,53.604 	"/>
	<path class="st1" d="M162.939,53.604h2.378l0.206,2.865l1.74-2.865h2.227l-3.772,5.366c-0.308,0.434-0.56,0.758-0.76,0.971
		c-0.198,0.213-0.457,0.389-0.771,0.527c-0.316,0.137-0.717,0.205-1.203,0.205c-0.257,0-0.691-0.035-1.3-0.108l0.388-1.437
		c0.36,0.039,0.626,0.056,0.796,0.056c0.507,0,0.863-0.184,1.073-0.554L162.939,53.604z"/>
	<polygon class="st1" points="155.011,55.312 151.586,55.312 150.172,60.555 147.986,60.555 149.863,53.604 155.472,53.604 	"/>
	<path class="st1" d="M191.067,53.604h-2.386l-4.538,6.951h2.236l0.653-1.148h2.493l0.039,1.148h2.29L191.067,53.604z
		 M187.911,57.904l1.453-2.499l0.109,2.499H187.911z"/>
	<path class="st1" d="M161.72,54.159c-0.294-0.371-0.838-0.555-1.629-0.555h-3.637l-1.876,6.951h2.198l0.696-2.58h1.197
		c0.882,0,1.591-0.197,2.129-0.592c0.537-0.395,0.899-0.943,1.089-1.646C162.07,55.056,162.014,54.528,161.72,54.159z M159.738,55.8
		c-0.06,0.224-0.195,0.408-0.404,0.552c-0.21,0.143-0.525,0.215-0.947,0.215h-0.536l0.419-1.55h0.623
		c0.409,0,0.667,0.076,0.773,0.228C159.773,55.396,159.797,55.582,159.738,55.8z"/>
	<path class="st1" d="M163.897,63.674h-2.386l-4.537,6.95h2.236l0.652-1.147h2.493l0.038,1.147h2.291L163.897,63.674z
		 M160.742,67.974l1.453-2.499l0.108,2.499H160.742z"/>
	<path class="st1" d="M139.632,64.488c-0.47-0.621-1.295-0.932-2.474-0.932c-1.149,0-2.132,0.316-2.947,0.948
		c-0.813,0.632-1.375,1.515-1.681,2.65c-0.219,0.812-0.239,1.489-0.06,2.029c0.181,0.541,0.498,0.936,0.953,1.186
		c0.457,0.25,1.085,0.374,1.883,0.374c0.786,0,1.48-0.144,2.086-0.434c0.604-0.289,1.115-0.694,1.535-1.213
		c0.419-0.519,0.739-1.186,0.958-1.998C140.187,65.979,140.101,65.108,139.632,64.488z M137.704,67.069
		c-0.21,0.777-0.485,1.316-0.824,1.617c-0.338,0.299-0.743,0.45-1.213,0.45c-0.457,0-0.777-0.154-0.96-0.459
		c-0.183-0.308-0.179-0.811,0.01-1.514c0.191-0.707,0.462-1.215,0.812-1.521c0.35-0.308,0.745-0.46,1.186-0.46
		c0.462,0,0.786,0.151,0.973,0.452C137.874,65.936,137.88,66.414,137.704,67.069z"/>
</g>
</svg>
